<?xml version="1.0" encoding="utf-8"?>
<!-- Generator: Adobe Illustrator 24.0.1, SVG Export Plug-In . SVG Version: 6.00 Build 0)  -->
<svg version="1.1" id="圖層_1" xmlns="http://www.w3.org/2000/svg" xmlns:xlink="http://www.w3.org/1999/xlink" x="0px" y="0px" viewBox="0 0 1840 2300" style="enable-background:new 0 0 1840 2300;" xml:space="preserve">
	<style type="text/css">
	.st0{fill:#0C354B;}
	.st1{fill:#E5A83D;}
	.st2{font-family:'NotoSansCJKtc-Bold-B5pc-H';}
	.st3{font-size:66px;}
	.st4{fill:#E3AA39;}
	.st5{font-family:'Arial-BoldMT';}
	.st6{font-size:291.7761px;}
	.st7{fill:none;stroke:#E3AA39;stroke-miterlimit:10;stroke-width:10;}
	.st8{font-family:'NotoSansCJKtc-Light-B5pc-H';}
	.st9{font-size:88px;}
	.st10{font-family:'NotoSansCJKtc-Medium-B5pc-H';}
	.st11{font-size:94px;}
	.st12{fill:none;stroke:#8AAFC1;stroke-miterlimit:10;}
	.st13{font-size:60.6493px;}
	.st14{font-size:106px;}
	.st15{fill:none;}
	.st16{font-size:44px;}
	.st17{letter-spacing:6;}
	.st18{fill:#FFFFFF;}
	.st19{letter-spacing:1;}
	.st20{font-size:68px;}
</style>
	<rect class="st0" width="1840" height="2300" />
	<text transform="matrix(1 0 0 1 94.5001 449.017)" class="st1 st2 st3">月變化</text>
	<g>
		<text transform="matrix(1 0 0 1 150 698.1412)" class="st4 st5 st6">-903</text>
	</g>
	<g>
		<rect x="800" y="385.6" class="st7" width="880" height="336.8" />
		<g>
			<text transform="matrix(1 0 0 1 830 519.593)" class="st4 st8 st9">月出生</text>
			<text transform="matrix(1 0 0 1 1330 521.5084)" class="st4 st10 st11">96</text>
			<text transform="matrix(1 0 0 1 830 649.4965)" class="st4 st8 st9">月死亡</text>
			<text transform="matrix(1 0 0 1 1330 651.7274)" class="st4 st10 st11">170</text>
		</g>
	</g>
	<line class="st12" x1="90" y1="745.5" x2="1643" y2="745.5" />
	<g>
		<g>
			<rect x="100" y="161.1" class="st4" width="500" height="190.4" />
			<g>
				<text transform="matrix(1 0 0 1 200 233.9079)" class="st0 st10 st13">年變化</text>
				<g>
					<text transform="matrix(1 0 0 1 110 330.2121)" class="st0 st5 st14">-3789</text>
				</g>
			</g>
		</g>
		<g>
			<rect x="640" y="161.1" class="st4" width="500" height="190.4" />
			<g>
				<text transform="matrix(1 0 0 1 740 233.908)" class="st0 st10 st13">年出生</text>
				<g>
					<text transform="matrix(1 0 0 1 650 330.2122)" class="st0 st5 st14">594</text>
				</g>
			</g>
		</g>
		<g>
			<rect x="1180" y="161.1" class="st4" width="500" height="190.4" />
			<g>
				<text transform="matrix(1 0 0 1 1280 233.908)" class="st0 st10 st13">年死亡</text>
				<g>
					<text transform="matrix(1 0 0 1 1190 330.2122)" class="st0 st5 st14">756</text>
				</g>
			</g>
		</g>
	</g>
	<rect x="90.6" y="772.1" class="st15" width="1141.8" height="314.8" />
	<text transform="matrix(1 0 0 1 90.5591 810.7965)">
		
		<tspan x="0" y="0" class="st4 st10 st16 st17">洲美里</tspan>
		<tspan x="200" y="0" class="st18 st10 st16 st17">年 18 ， 月 -2</tspan>
		
		<tspan x="0" y="70" class="st4 st10 st16 st17">大屯里</tspan>
		<tspan x="200" y="70" class="st18 st10 st16 st17">年 15 ， 月 4</tspan>
		
		<tspan x="0" y="140" class="st4 st10 st16 st17">一德里</tspan>
		<tspan x="200" y="140" class="st18 st10 st16 st17">年 -7 ， 月 -9</tspan>
		
		<tspan x="0" y="210" class="st4 st10 st16 st17">湖田里</tspan>
		<tspan x="200" y="210" class="st18 st10 st16 st17">年 -20 ， 月 -4</tspan>
		
		<tspan x="0" y="280" class="st4 st10 st16 st17">吉利里</tspan>
		<tspan x="200" y="280" class="st18 st10 st16 st17">年 -24 ， 月 -8</tspan>
		
		<tspan x="0" y="350" class="st4 st10 st16 st17">泉源里</tspan>
		<tspan x="200" y="350" class="st18 st10 st16 st17">年 -33 ， 月 1</tspan>
		
		<tspan x="0" y="420" class="st4 st10 st16 st17">湖山里</tspan>
		<tspan x="200" y="420" class="st18 st10 st16 st17">年 -37 ， 月 -14</tspan>
		
		<tspan x="0" y="490" class="st4 st10 st16 st17">福興里</tspan>
		<tspan x="200" y="490" class="st18 st10 st16 st17">年 -43 ， 月 -16</tspan>
		
		<tspan x="0" y="560" class="st4 st10 st16 st17">尊賢里</tspan>
		<tspan x="200" y="560" class="st18 st10 st16 st17">年 -43 ， 月 -18</tspan>
		
		<tspan x="0" y="630" class="st4 st10 st16 st17">建民里</tspan>
		<tspan x="200" y="630" class="st18 st10 st16 st17">年 -48 ， 月 -4</tspan>
		
		<tspan x="0" y="700" class="st4 st10 st16 st17">吉慶里</tspan>
		<tspan x="200" y="700" class="st18 st10 st16 st17">年 -51 ， 月 -17</tspan>
		
		<tspan x="0" y="770" class="st4 st10 st16 st17">立農里</tspan>
		<tspan x="200" y="770" class="st18 st10 st16 st17">年 -60 ， 月 20</tspan>
		
		<tspan x="0" y="840" class="st4 st10 st16 st17">大同里</tspan>
		<tspan x="200" y="840" class="st18 st10 st16 st17">年 -62 ， 月 -34</tspan>
		
		<tspan x="0" y="910" class="st4 st10 st16 st17">秀山里</tspan>
		<tspan x="200" y="910" class="st18 st10 st16 st17">年 -63 ， 月 -6</tspan>
		
		<tspan x="0" y="980" class="st4 st10 st16 st17">立賢里</tspan>
		<tspan x="200" y="980" class="st18 st10 st16 st17">年 -70 ， 月 -15</tspan>
		
		<tspan x="0" y="1050" class="st4 st10 st16 st17">清江里</tspan>
		<tspan x="200" y="1050" class="st18 st10 st16 st17">年 -73 ， 月 -39</tspan>
		
		<tspan x="0" y="1120" class="st4 st10 st16 st17">榮光里</tspan>
		<tspan x="200" y="1120" class="st18 st10 st16 st17">年 -77 ， 月 -20</tspan>
		
		<tspan x="0" y="1190" class="st4 st10 st16 st17">東華里</tspan>
		<tspan x="200" y="1190" class="st18 st10 st16 st17">年 -82 ， 月 -6</tspan>
		
		<tspan x="0" y="1260" class="st4 st10 st16 st17">林泉里</tspan>
		<tspan x="200" y="1260" class="st18 st10 st16 st17">年 -83 ， 月 -8</tspan>
		
		<tspan x="0" y="1330" class="st4 st10 st16 st17">桃源里</tspan>
		<tspan x="200" y="1330" class="st18 st10 st16 st17">年 -87 ， 月 -21</tspan>
		
		<tspan x="0" y="1400" class="st4 st10 st16 st17">文林里</tspan>
		<tspan x="200" y="1400" class="st18 st10 st16 st17">年 -89 ， 月 -31</tspan>
		
		<tspan x="0" y="1470" class="st4 st10 st16 st17">八仙里</tspan>
		<tspan x="200" y="1470" class="st18 st10 st16 st17">年 -97 ， 月 -12</tspan>
		
		<tspan x="800" y="0" class="st4 st10 st16 st17">智仁里</tspan>
		<tspan x="1000" y="0" class="st18 st10 st16 st17">年 -100 ， 月 -39</tspan>
		
		<tspan x="800" y="70" class="st4 st10 st16 st17">溫泉里</tspan>
		<tspan x="1000" y="70" class="st18 st10 st16 st17">年 -101 ， 月 -23</tspan>
		
		<tspan x="800" y="140" class="st4 st10 st16 st17">中庸里</tspan>
		<tspan x="1000" y="140" class="st18 st10 st16 st17">年 -102 ， 月 -4</tspan>
		
		<tspan x="800" y="210" class="st4 st10 st16 st17">永明里</tspan>
		<tspan x="1000" y="210" class="st18 st10 st16 st17">年 -105 ， 月 -30</tspan>
		
		<tspan x="800" y="280" class="st4 st10 st16 st17">石牌里</tspan>
		<tspan x="1000" y="280" class="st18 st10 st16 st17">年 -106 ， 月 -28</tspan>
		
		<tspan x="800" y="350" class="st4 st10 st16 st17">中和里</tspan>
		<tspan x="1000" y="350" class="st18 st10 st16 st17">年 -107 ， 月 -41</tspan>
		
		<tspan x="800" y="420" class="st4 st10 st16 st17">文化里</tspan>
		<tspan x="1000" y="420" class="st18 st10 st16 st17">年 -124 ， 月 -19</tspan>
		
		<tspan x="800" y="490" class="st4 st10 st16 st17">稻香里</tspan>
		<tspan x="1000" y="490" class="st18 st10 st16 st17">年 -131 ， 月 -27</tspan>
		
		<tspan x="800" y="560" class="st4 st10 st16 st17">振華里</tspan>
		<tspan x="1000" y="560" class="st18 st10 st16 st17">年 -133 ， 月 -58</tspan>
		
		<tspan x="800" y="630" class="st4 st10 st16 st17">中央里</tspan>
		<tspan x="1000" y="630" class="st18 st10 st16 st17">年 -134 ， 月 -19</tspan>
		
		<tspan x="800" y="700" class="st4 st10 st16 st17">中心里</tspan>
		<tspan x="1000" y="700" class="st18 st10 st16 st17">年 -137 ， 月 -29</tspan>
		
		<tspan x="800" y="770" class="st4 st10 st16 st17">關渡里</tspan>
		<tspan x="1000" y="770" class="st18 st10 st16 st17">年 -140 ， 月 -59</tspan>
		
		<tspan x="800" y="840" class="st4 st10 st16 st17">豐年里</tspan>
		<tspan x="1000" y="840" class="st18 st10 st16 st17">年 -142 ， 月 -20</tspan>
		
		<tspan x="800" y="910" class="st4 st10 st16 st17">開明里</tspan>
		<tspan x="1000" y="910" class="st18 st10 st16 st17">年 -151 ， 月 -41</tspan>
		
		<tspan x="800" y="980" class="st4 st10 st16 st17">奇岩里</tspan>
		<tspan x="1000" y="980" class="st18 st10 st16 st17">年 -152 ， 月 -37</tspan>
		
		<tspan x="800" y="1050" class="st4 st10 st16 st17">長安里</tspan>
		<tspan x="1000" y="1050" class="st18 st10 st16 st17">年 -153 ， 月 -45</tspan>
		
		<tspan x="800" y="1120" class="st4 st10 st16 st17">裕民里</tspan>
		<tspan x="1000" y="1120" class="st18 st10 st16 st17">年 -161 ， 月 -30</tspan>
		
		<tspan x="800" y="1190" class="st4 st10 st16 st17">永和里</tspan>
		<tspan x="1000" y="1190" class="st18 st10 st16 st17">年 -162 ， 月 -33</tspan>
		
		<tspan x="800" y="1260" class="st4 st10 st16 st17">榮華里</tspan>
		<tspan x="1000" y="1260" class="st18 st10 st16 st17">年 -166 ， 月 -30</tspan>
		
		<tspan x="800" y="1330" class="st4 st10 st16 st17">永欣里</tspan>
		<tspan x="1000" y="1330" class="st18 st10 st16 st17">年 -166 ， 月 -32</tspan>
			</text>
	<text transform="matrix(1 0 0 1 207 119.2712)" class="st18 st8 st20">臺北市北投區  |  2022年5月</text>
</svg>
