<?xml version="1.0" encoding="utf-8"?>
<!-- Generator: Adobe Illustrator 24.0.1, SVG Export Plug-In . SVG Version: 6.00 Build 0)  -->
<svg version="1.1" id="圖層_1" xmlns="http://www.w3.org/2000/svg" xmlns:xlink="http://www.w3.org/1999/xlink" x="0px" y="0px" viewBox="0 0 1840 2300" style="enable-background:new 0 0 1840 2300;" xml:space="preserve">
	<style type="text/css">
	.st0{fill:#0C354B;}
	.st1{fill:#E5A83D;}
	.st2{font-family:'NotoSansCJKtc-Bold-B5pc-H';}
	.st3{font-size:66px;}
	.st4{fill:#E3AA39;}
	.st5{font-family:'Arial-BoldMT';}
	.st6{font-size:291.7761px;}
	.st7{fill:none;stroke:#E3AA39;stroke-miterlimit:10;stroke-width:10;}
	.st8{font-family:'NotoSansCJKtc-Light-B5pc-H';}
	.st9{font-size:88px;}
	.st10{font-family:'NotoSansCJKtc-Medium-B5pc-H';}
	.st11{font-size:94px;}
	.st12{fill:none;stroke:#8AAFC1;stroke-miterlimit:10;}
	.st13{font-size:60.6493px;}
	.st14{font-size:106px;}
	.st15{fill:none;}
	.st16{font-size:44px;}
	.st17{letter-spacing:6;}
	.st18{fill:#FFFFFF;}
	.st19{letter-spacing:1;}
	.st20{font-size:68px;}
</style>
	<rect class="st0" width="1840" height="2300" />
	<text transform="matrix(1 0 0 1 94.5001 449.017)" class="st1 st2 st3">月變化</text>
	<g>
		<text transform="matrix(1 0 0 1 150 698.1412)" class="st4 st5 st6">-1010</text>
	</g>
	<g>
		<rect x="800" y="385.6" class="st7" width="880" height="336.8" />
		<g>
			<text transform="matrix(1 0 0 1 830 519.593)" class="st4 st8 st9">月出生</text>
			<text transform="matrix(1 0 0 1 1330 521.5084)" class="st4 st10 st11">101</text>
			<text transform="matrix(1 0 0 1 830 649.4965)" class="st4 st8 st9">月死亡</text>
			<text transform="matrix(1 0 0 1 1330 651.7274)" class="st4 st10 st11">204</text>
		</g>
	</g>
	<line class="st12" x1="90" y1="745.5" x2="1643" y2="745.5" />
	<g>
		<g>
			<rect x="100" y="161.1" class="st4" width="500" height="190.4" />
			<g>
				<text transform="matrix(1 0 0 1 200 233.9079)" class="st0 st10 st13">年變化</text>
				<g>
					<text transform="matrix(1 0 0 1 110 330.2121)" class="st0 st5 st14">-6155</text>
				</g>
			</g>
		</g>
		<g>
			<rect x="640" y="161.1" class="st4" width="500" height="190.4" />
			<g>
				<text transform="matrix(1 0 0 1 740 233.908)" class="st0 st10 st13">年出生</text>
				<g>
					<text transform="matrix(1 0 0 1 650 330.2122)" class="st0 st5 st14">632</text>
				</g>
			</g>
		</g>
		<g>
			<rect x="1180" y="161.1" class="st4" width="500" height="190.4" />
			<g>
				<text transform="matrix(1 0 0 1 1280 233.908)" class="st0 st10 st13">年死亡</text>
				<g>
					<text transform="matrix(1 0 0 1 1190 330.2122)" class="st0 st5 st14">929</text>
				</g>
			</g>
		</g>
	</g>
	<rect x="90.6" y="772.1" class="st15" width="1141.8" height="314.8" />
	<text transform="matrix(1 0 0 1 90.5591 810.7965)">
		
		<tspan x="0" y="0" class="st4 st10 st16 st17">平等里</tspan>
		<tspan x="200" y="0" class="st18 st10 st16 st17">年 -14 ， 月 -5</tspan>
		
		<tspan x="0" y="70" class="st4 st10 st16 st17">溪山里</tspan>
		<tspan x="200" y="70" class="st18 st10 st16 st17">年 -20 ， 月 -3</tspan>
		
		<tspan x="0" y="140" class="st4 st10 st16 st17">菁山里</tspan>
		<tspan x="200" y="140" class="st18 st10 st16 st17">年 -24 ， 月 -10</tspan>
		
		<tspan x="0" y="210" class="st4 st10 st16 st17">永福里</tspan>
		<tspan x="200" y="210" class="st18 st10 st16 st17">年 -37 ， 月 -9</tspan>
		
		<tspan x="0" y="280" class="st4 st10 st16 st17">公館里</tspan>
		<tspan x="200" y="280" class="st18 st10 st16 st17">年 -46 ， 月 -5</tspan>
		
		<tspan x="0" y="350" class="st4 st10 st16 st17">福安里</tspan>
		<tspan x="200" y="350" class="st18 st10 st16 st17">年 -49 ， 月 -8</tspan>
		
		<tspan x="0" y="420" class="st4 st10 st16 st17">新安里</tspan>
		<tspan x="200" y="420" class="st18 st10 st16 st17">年 -53 ， 月 -15</tspan>
		
		<tspan x="0" y="490" class="st4 st10 st16 st17">富光里</tspan>
		<tspan x="200" y="490" class="st18 st10 st16 st17">年 -56 ， 月 -9</tspan>
		
		<tspan x="0" y="560" class="st4 st10 st16 st17">義信里</tspan>
		<tspan x="200" y="560" class="st18 st10 st16 st17">年 -58 ， 月 -24</tspan>
		
		<tspan x="0" y="630" class="st4 st10 st16 st17">葫東里</tspan>
		<tspan x="200" y="630" class="st18 st10 st16 st17">年 -65 ， 月 -12</tspan>
		
		<tspan x="0" y="700" class="st4 st10 st16 st17">翠山里</tspan>
		<tspan x="200" y="700" class="st18 st10 st16 st17">年 -73 ， 月 -16</tspan>
		
		<tspan x="0" y="770" class="st4 st10 st16 st17">富洲里</tspan>
		<tspan x="200" y="770" class="st18 st10 st16 st17">年 -73 ， 月 -19</tspan>
		
		<tspan x="0" y="840" class="st4 st10 st16 st17">岩山里</tspan>
		<tspan x="200" y="840" class="st18 st10 st16 st17">年 -76 ， 月 -8</tspan>
		
		<tspan x="0" y="910" class="st4 st10 st16 st17">社子里</tspan>
		<tspan x="200" y="910" class="st18 st10 st16 st17">年 -84 ， 月 -35</tspan>
		
		<tspan x="0" y="980" class="st4 st10 st16 st17">福順里</tspan>
		<tspan x="200" y="980" class="st18 st10 st16 st17">年 -86 ， 月 0</tspan>
		
		<tspan x="0" y="1050" class="st4 st10 st16 st17">仁勇里</tspan>
		<tspan x="200" y="1050" class="st18 st10 st16 st17">年 -87 ， 月 -16</tspan>
		
		<tspan x="0" y="1120" class="st4 st10 st16 st17">福華里</tspan>
		<tspan x="200" y="1120" class="st18 st10 st16 st17">年 -88 ， 月 -17</tspan>
		
		<tspan x="0" y="1190" class="st4 st10 st16 st17">社園里</tspan>
		<tspan x="200" y="1190" class="st18 st10 st16 st17">年 -89 ， 月 -6</tspan>
		
		<tspan x="0" y="1260" class="st4 st10 st16 st17">福林里</tspan>
		<tspan x="200" y="1260" class="st18 st10 st16 st17">年 -93 ， 月 -15</tspan>
		
		<tspan x="0" y="1330" class="st4 st10 st16 st17">三玉里</tspan>
		<tspan x="200" y="1330" class="st18 st10 st16 st17">年 -101 ， 月 -20</tspan>
		
		<tspan x="0" y="1400" class="st4 st10 st16 st17">聖山里</tspan>
		<tspan x="200" y="1400" class="st18 st10 st16 st17">年 -102 ， 月 -18</tspan>
		
		<tspan x="0" y="1470" class="st4 st10 st16 st17">前港里</tspan>
		<tspan x="200" y="1470" class="st18 st10 st16 st17">年 -103 ， 月 -15</tspan>
		
		<tspan x="800" y="0" class="st4 st10 st16 st17">陽明里</tspan>
		<tspan x="1000" y="0" class="st18 st10 st16 st17">年 -104 ， 月 -14</tspan>
		
		<tspan x="800" y="70" class="st4 st10 st16 st17">永倫里</tspan>
		<tspan x="1000" y="70" class="st18 st10 st16 st17">年 -105 ， 月 -40</tspan>
		
		<tspan x="800" y="140" class="st4 st10 st16 st17">德行里</tspan>
		<tspan x="1000" y="140" class="st18 st10 st16 st17">年 -107 ， 月 -25</tspan>
		
		<tspan x="800" y="210" class="st4 st10 st16 st17">福德里</tspan>
		<tspan x="1000" y="210" class="st18 st10 st16 st17">年 -111 ， 月 -28</tspan>
		
		<tspan x="800" y="280" class="st4 st10 st16 st17">臨溪里</tspan>
		<tspan x="1000" y="280" class="st18 st10 st16 st17">年 -114 ， 月 -7</tspan>
		
		<tspan x="800" y="350" class="st4 st10 st16 st17">東山里</tspan>
		<tspan x="1000" y="350" class="st18 st10 st16 st17">年 -120 ， 月 -8</tspan>
		
		<tspan x="800" y="420" class="st4 st10 st16 st17">葫蘆里</tspan>
		<tspan x="1000" y="420" class="st18 st10 st16 st17">年 -121 ， 月 -31</tspan>
		
		<tspan x="800" y="490" class="st4 st10 st16 st17">福中里</tspan>
		<tspan x="1000" y="490" class="st18 st10 st16 st17">年 -125 ， 月 -14</tspan>
		
		<tspan x="800" y="560" class="st4 st10 st16 st17">天祿里</tspan>
		<tspan x="1000" y="560" class="st18 st10 st16 st17">年 -134 ， 月 -13</tspan>
		
		<tspan x="800" y="630" class="st4 st10 st16 st17">忠誠里</tspan>
		<tspan x="1000" y="630" class="st18 st10 st16 st17">年 -143 ， 月 -22</tspan>
		
		<tspan x="800" y="700" class="st4 st10 st16 st17">蘭雅里</tspan>
		<tspan x="1000" y="700" class="st18 st10 st16 st17">年 -149 ， 月 -32</tspan>
		
		<tspan x="800" y="770" class="st4 st10 st16 st17">百齡里</tspan>
		<tspan x="1000" y="770" class="st18 st10 st16 st17">年 -155 ， 月 -23</tspan>
		
		<tspan x="800" y="840" class="st4 st10 st16 st17">社新里</tspan>
		<tspan x="1000" y="840" class="st18 st10 st16 st17">年 -156 ， 月 -27</tspan>
		
		<tspan x="800" y="910" class="st4 st10 st16 st17">福佳里</tspan>
		<tspan x="1000" y="910" class="st18 st10 st16 st17">年 -157 ， 月 -18</tspan>
		
		<tspan x="800" y="980" class="st4 st10 st16 st17">蘭興里</tspan>
		<tspan x="1000" y="980" class="st18 st10 st16 st17">年 -161 ， 月 -37</tspan>
		
		<tspan x="800" y="1050" class="st4 st10 st16 st17">德華里</tspan>
		<tspan x="1000" y="1050" class="st18 st10 st16 st17">年 -162 ， 月 -25</tspan>
		
		<tspan x="800" y="1120" class="st4 st10 st16 st17">明勝里</tspan>
		<tspan x="1000" y="1120" class="st18 st10 st16 st17">年 -167 ， 月 -24</tspan>
		
		<tspan x="800" y="1190" class="st4 st10 st16 st17">天母里</tspan>
		<tspan x="1000" y="1190" class="st18 st10 st16 st17">年 -170 ， 月 0</tspan>
		
		<tspan x="800" y="1260" class="st4 st10 st16 st17">天壽里</tspan>
		<tspan x="1000" y="1260" class="st18 st10 st16 st17">年 -170 ， 月 -29</tspan>
		
		<tspan x="800" y="1330" class="st4 st10 st16 st17">天福里</tspan>
		<tspan x="1000" y="1330" class="st18 st10 st16 st17">年 -175 ， 月 -29</tspan>
		
		<tspan x="800" y="1400" class="st4 st10 st16 st17">承德里</tspan>
		<tspan x="1000" y="1400" class="st18 st10 st16 st17">年 -177 ， 月 -22</tspan>
		
		<tspan x="800" y="1470" class="st4 st10 st16 st17">舊佳里</tspan>
		<tspan x="1000" y="1470" class="st18 st10 st16 st17">年 -183 ， 月 -21</tspan>
		
		<tspan x="800" y="0" class="st4 st10 st16 st17">名山里</tspan>
		<tspan x="1000" y="0" class="st18 st10 st16 st17">年 -183 ， 月 -12</tspan>
		
		<tspan x="800" y="70" class="st4 st10 st16 st17">後港里</tspan>
		<tspan x="1000" y="70" class="st18 st10 st16 st17">年 -197 ， 月 -42</tspan>
		
		<tspan x="800" y="140" class="st4 st10 st16 st17">芝山里</tspan>
		<tspan x="1000" y="140" class="st18 st10 st16 st17">年 -197 ， 月 -25</tspan>
		
		<tspan x="800" y="210" class="st4 st10 st16 st17">福志里</tspan>
		<tspan x="1000" y="210" class="st18 st10 st16 st17">年 -203 ， 月 -14</tspan>
		
		<tspan x="800" y="280" class="st4 st10 st16 st17">天山里</tspan>
		<tspan x="1000" y="280" class="st18 st10 st16 st17">年 -233 ， 月 -39</tspan>
		
		<tspan x="800" y="350" class="st4 st10 st16 st17">天玉里</tspan>
		<tspan x="1000" y="350" class="st18 st10 st16 st17">年 -246 ， 月 -34</tspan>
		
		<tspan x="800" y="420" class="st4 st10 st16 st17">天和里</tspan>
		<tspan x="1000" y="420" class="st18 st10 st16 st17">年 -253 ， 月 -70</tspan>
			</text>
	<text transform="matrix(1 0 0 1 207 119.2712)" class="st18 st8 st20">臺北市士林區  |  2022年5月</text>
</svg>
