<?xml version="1.0" encoding="utf-8"?>
<!-- Generator: Adobe Illustrator 24.0.1, SVG Export Plug-In . SVG Version: 6.00 Build 0)  -->
<svg version="1.1" id="圖層_1" xmlns="http://www.w3.org/2000/svg" xmlns:xlink="http://www.w3.org/1999/xlink" x="0px" y="0px" viewBox="0 0 1840 2300" style="enable-background:new 0 0 1840 2300;" xml:space="preserve">
	<style type="text/css">
	.st0{fill:#0C354B;}
	.st1{fill:#E5A83D;}
	.st2{font-family:'NotoSansCJKtc-Bold-B5pc-H';}
	.st3{font-size:66px;}
	.st4{fill:#E3AA39;}
	.st5{font-family:'Arial-BoldMT';}
	.st6{font-size:291.7761px;}
	.st7{fill:none;stroke:#E3AA39;stroke-miterlimit:10;stroke-width:10;}
	.st8{font-family:'NotoSansCJKtc-Light-B5pc-H';}
	.st9{font-size:88px;}
	.st10{font-family:'NotoSansCJKtc-Medium-B5pc-H';}
	.st11{font-size:94px;}
	.st12{fill:none;stroke:#8AAFC1;stroke-miterlimit:10;}
	.st13{font-size:60.6493px;}
	.st14{font-size:106px;}
	.st15{fill:none;}
	.st16{font-size:44px;}
	.st17{letter-spacing:6;}
	.st18{fill:#FFFFFF;}
	.st19{letter-spacing:1;}
	.st20{font-size:68px;}
</style>
	<rect class="st0" width="1840" height="2300" />
	<text transform="matrix(1 0 0 1 94.5001 449.017)" class="st1 st2 st3">月變化</text>
	<g>
		<text transform="matrix(1 0 0 1 150 698.1412)" class="st4 st5 st6">-226</text>
	</g>
	<g>
		<rect x="800" y="385.6" class="st7" width="880" height="336.8" />
		<g>
			<text transform="matrix(1 0 0 1 830 519.593)" class="st4 st8 st9">月出生</text>
			<text transform="matrix(1 0 0 1 1330 521.5084)" class="st4 st10 st11">111</text>
			<text transform="matrix(1 0 0 1 830 649.4965)" class="st4 st8 st9">月死亡</text>
			<text transform="matrix(1 0 0 1 1330 651.7274)" class="st4 st10 st11">226</text>
		</g>
	</g>
	<line class="st12" x1="90" y1="745.5" x2="1643" y2="745.5" />
	<g>
		<g>
			<rect x="100" y="161.1" class="st4" width="500" height="190.4" />
			<g>
				<text transform="matrix(1 0 0 1 200 233.9079)" class="st0 st10 st13">年變化</text>
				<g>
					<text transform="matrix(1 0 0 1 110 330.2121)" class="st0 st5 st14">-2871</text>
				</g>
			</g>
		</g>
		<g>
			<rect x="640" y="161.1" class="st4" width="500" height="190.4" />
			<g>
				<text transform="matrix(1 0 0 1 740 233.908)" class="st0 st10 st13">年出生</text>
				<g>
					<text transform="matrix(1 0 0 1 650 330.2122)" class="st0 st5 st14">698</text>
				</g>
			</g>
		</g>
		<g>
			<rect x="1180" y="161.1" class="st4" width="500" height="190.4" />
			<g>
				<text transform="matrix(1 0 0 1 1280 233.908)" class="st0 st10 st13">年死亡</text>
				<g>
					<text transform="matrix(1 0 0 1 1190 330.2122)" class="st0 st5 st14">997</text>
				</g>
			</g>
		</g>
	</g>
	<rect x="90.6" y="772.1" class="st15" width="1141.8" height="314.8" />
	<text transform="matrix(1 0 0 1 90.5591 810.7965)">
		
		<tspan x="0" y="0" class="st4 st10 st16 st17">德西里</tspan>
		<tspan x="200" y="0" class="st18 st10 st16 st17">年 379 ， 月 75</tspan>
		
		<tspan x="0" y="70" class="st4 st10 st16 st17">安和里</tspan>
		<tspan x="200" y="70" class="st18 st10 st16 st17">年 88 ， 月 20</tspan>
		
		<tspan x="0" y="140" class="st4 st10 st16 st17">安吉里</tspan>
		<tspan x="200" y="140" class="st18 st10 st16 st17">年 71 ， 月 33</tspan>
		
		<tspan x="0" y="210" class="st4 st10 st16 st17">灣成里</tspan>
		<tspan x="200" y="210" class="st18 st10 st16 st17">年 49 ， 月 14</tspan>
		
		<tspan x="0" y="280" class="st4 st10 st16 st17">安東里</tspan>
		<tspan x="200" y="280" class="st18 st10 st16 st17">年 20 ， 月 7</tspan>
		
		<tspan x="0" y="350" class="st4 st10 st16 st17">安宜里</tspan>
		<tspan x="200" y="350" class="st18 st10 st16 st17">年 12 ， 月 -7</tspan>
		
		<tspan x="0" y="420" class="st4 st10 st16 st17">德北里</tspan>
		<tspan x="200" y="420" class="st18 st10 st16 st17">年 10 ， 月 4</tspan>
		
		<tspan x="0" y="490" class="st4 st10 st16 st17">千歲里</tspan>
		<tspan x="200" y="490" class="st18 st10 st16 st17">年 1 ， 月 1</tspan>
		
		<tspan x="0" y="560" class="st4 st10 st16 st17">本元里</tspan>
		<tspan x="200" y="560" class="st18 st10 st16 st17">年 -3 ， 月 6</tspan>
		
		<tspan x="0" y="630" class="st4 st10 st16 st17">力行里</tspan>
		<tspan x="200" y="630" class="st18 st10 st16 st17">年 -4 ， 月 1</tspan>
		
		<tspan x="0" y="700" class="st4 st10 st16 st17">安生里</tspan>
		<tspan x="200" y="700" class="st18 st10 st16 st17">年 -4 ， 月 -9</tspan>
		
		<tspan x="0" y="770" class="st4 st10 st16 st17">灣愛里</tspan>
		<tspan x="200" y="770" class="st18 st10 st16 st17">年 -5 ， 月 0</tspan>
		
		<tspan x="0" y="840" class="st4 st10 st16 st17">千北里</tspan>
		<tspan x="200" y="840" class="st18 st10 st16 st17">年 -5 ， 月 0</tspan>
		
		<tspan x="0" y="910" class="st4 st10 st16 st17">灣興里</tspan>
		<tspan x="200" y="910" class="st18 st10 st16 st17">年 -6 ， 月 0</tspan>
		
		<tspan x="0" y="980" class="st4 st10 st16 st17">鳳南里</tspan>
		<tspan x="200" y="980" class="st18 st10 st16 st17">年 -9 ， 月 21</tspan>
		
		<tspan x="0" y="1050" class="st4 st10 st16 st17">精華里</tspan>
		<tspan x="200" y="1050" class="st18 st10 st16 st17">年 -9 ， 月 9</tspan>
		
		<tspan x="0" y="1120" class="st4 st10 st16 st17">博愛里</tspan>
		<tspan x="200" y="1120" class="st18 st10 st16 st17">年 -11 ， 月 -1</tspan>
		
		<tspan x="0" y="1190" class="st4 st10 st16 st17">立誠里</tspan>
		<tspan x="200" y="1190" class="st18 st10 st16 st17">年 -11 ， 月 -2</tspan>
		
		<tspan x="0" y="1260" class="st4 st10 st16 st17">德東里</tspan>
		<tspan x="200" y="1260" class="st18 st10 st16 st17">年 -12 ， 月 -4</tspan>
		
		<tspan x="0" y="1330" class="st4 st10 st16 st17">達勇里</tspan>
		<tspan x="200" y="1330" class="st18 st10 st16 st17">年 -12 ， 月 -2</tspan>
		
		<tspan x="0" y="1400" class="st4 st10 st16 st17">裕民里</tspan>
		<tspan x="200" y="1400" class="st18 st10 st16 st17">年 -14 ， 月 -6</tspan>
		
		<tspan x="0" y="1470" class="st4 st10 st16 st17">鼎力里</tspan>
		<tspan x="200" y="1470" class="st18 st10 st16 st17">年 -15 ， 月 4</tspan>
		
		<tspan x="800" y="0" class="st4 st10 st16 st17">港東里</tspan>
		<tspan x="1000" y="0" class="st18 st10 st16 st17">年 -17 ， 月 -9</tspan>
		
		<tspan x="800" y="70" class="st4 st10 st16 st17">豐裕里</tspan>
		<tspan x="1000" y="70" class="st18 st10 st16 st17">年 -18 ， 月 -17</tspan>
		
		<tspan x="800" y="140" class="st4 st10 st16 st17">港西里</tspan>
		<tspan x="1000" y="140" class="st18 st10 st16 st17">年 -18 ， 月 -4</tspan>
		
		<tspan x="800" y="210" class="st4 st10 st16 st17">興德里</tspan>
		<tspan x="1000" y="210" class="st18 st10 st16 st17">年 -19 ， 月 4</tspan>
		
		<tspan x="800" y="280" class="st4 st10 st16 st17">鼎強里</tspan>
		<tspan x="1000" y="280" class="st18 st10 st16 st17">年 -19 ， 月 -2</tspan>
		
		<tspan x="800" y="350" class="st4 st10 st16 st17">達德里</tspan>
		<tspan x="1000" y="350" class="st18 st10 st16 st17">年 -20 ， 月 0</tspan>
		
		<tspan x="800" y="420" class="st4 st10 st16 st17">千秋里</tspan>
		<tspan x="1000" y="420" class="st18 st10 st16 st17">年 -20 ， 月 -10</tspan>
		
		<tspan x="800" y="490" class="st4 st10 st16 st17">立業里</tspan>
		<tspan x="1000" y="490" class="st18 st10 st16 st17">年 -21 ， 月 2</tspan>
		
		<tspan x="800" y="560" class="st4 st10 st16 st17">灣華里</tspan>
		<tspan x="1000" y="560" class="st18 st10 st16 st17">年 -23 ， 月 -1</tspan>
		
		<tspan x="800" y="630" class="st4 st10 st16 st17">十全里</tspan>
		<tspan x="1000" y="630" class="st18 st10 st16 st17">年 -24 ， 月 -11</tspan>
		
		<tspan x="800" y="700" class="st4 st10 st16 st17">鼎中里</tspan>
		<tspan x="1000" y="700" class="st18 st10 st16 st17">年 -24 ， 月 7</tspan>
		
		<tspan x="800" y="770" class="st4 st10 st16 st17">本文里</tspan>
		<tspan x="1000" y="770" class="st18 st10 st16 st17">年 -24 ， 月 -3</tspan>
		
		<tspan x="800" y="840" class="st4 st10 st16 st17">川東里</tspan>
		<tspan x="1000" y="840" class="st18 st10 st16 st17">年 -26 ， 月 -6</tspan>
		
		<tspan x="800" y="910" class="st4 st10 st16 st17">達明里</tspan>
		<tspan x="1000" y="910" class="st18 st10 st16 st17">年 -26 ， 月 6</tspan>
		
		<tspan x="800" y="980" class="st4 st10 st16 st17">達仁里</tspan>
		<tspan x="1000" y="980" class="st18 st10 st16 st17">年 -27 ， 月 2</tspan>
		
		<tspan x="800" y="1050" class="st4 st10 st16 st17">立德里</tspan>
		<tspan x="1000" y="1050" class="st18 st10 st16 st17">年 -27 ， 月 -2</tspan>
		
		<tspan x="800" y="1120" class="st4 st10 st16 st17">長明里</tspan>
		<tspan x="1000" y="1120" class="st18 st10 st16 st17">年 -28 ， 月 0</tspan>
		
		<tspan x="800" y="1190" class="st4 st10 st16 st17">港新里</tspan>
		<tspan x="1000" y="1190" class="st18 st10 st16 st17">年 -28 ， 月 -7</tspan>
		
		<tspan x="800" y="1260" class="st4 st10 st16 st17">寶慶里</tspan>
		<tspan x="1000" y="1260" class="st18 st10 st16 st17">年 -29 ， 月 0</tspan>
		
		<tspan x="800" y="1330" class="st4 st10 st16 st17">德行里</tspan>
		<tspan x="1000" y="1330" class="st18 st10 st16 st17">年 -30 ， 月 -7</tspan>
		
		<tspan x="800" y="1400" class="st4 st10 st16 st17">鳳北里</tspan>
		<tspan x="1000" y="1400" class="st18 st10 st16 st17">年 -30 ， 月 -3</tspan>
		
		<tspan x="800" y="1470" class="st4 st10 st16 st17">灣勝里</tspan>
		<tspan x="1000" y="1470" class="st18 st10 st16 st17">年 -31 ， 月 0</tspan>
		
		<tspan x="800" y="0" class="st4 st10 st16 st17">安邦里</tspan>
		<tspan x="1000" y="0" class="st18 st10 st16 st17">年 -31 ， 月 4</tspan>
		
		<tspan x="800" y="70" class="st4 st10 st16 st17">寶泰里</tspan>
		<tspan x="1000" y="70" class="st18 st10 st16 st17">年 -31 ， 月 -1</tspan>
		
		<tspan x="800" y="140" class="st4 st10 st16 st17">安康里</tspan>
		<tspan x="1000" y="140" class="st18 st10 st16 st17">年 -32 ， 月 -3</tspan>
		
		<tspan x="800" y="210" class="st4 st10 st16 st17">德智里</tspan>
		<tspan x="1000" y="210" class="st18 st10 st16 st17">年 -34 ， 月 -11</tspan>
		
		<tspan x="800" y="280" class="st4 st10 st16 st17">寶業里</tspan>
		<tspan x="1000" y="280" class="st18 st10 st16 st17">年 -36 ， 月 17</tspan>
		
		<tspan x="800" y="350" class="st4 st10 st16 st17">德仁里</tspan>
		<tspan x="1000" y="350" class="st18 st10 st16 st17">年 -36 ， 月 -11</tspan>
		
		<tspan x="800" y="420" class="st4 st10 st16 st17">建東里</tspan>
		<tspan x="1000" y="420" class="st18 st10 st16 st17">年 -38 ， 月 2</tspan>
		
		<tspan x="800" y="490" class="st4 st10 st16 st17">寶民里</tspan>
		<tspan x="1000" y="490" class="st18 st10 st16 st17">年 -39 ， 月 6</tspan>
		
		<tspan x="800" y="560" class="st4 st10 st16 st17">本安里</tspan>
		<tspan x="1000" y="560" class="st18 st10 st16 st17">年 -39 ， 月 3</tspan>
		
		<tspan x="800" y="630" class="st4 st10 st16 st17">灣子里</tspan>
		<tspan x="1000" y="630" class="st18 st10 st16 st17">年 -39 ， 月 -15</tspan>
		
		<tspan x="800" y="700" class="st4 st10 st16 st17">安寧里</tspan>
		<tspan x="1000" y="700" class="st18 st10 st16 st17">年 -41 ， 月 -15</tspan>
		
		<tspan x="800" y="770" class="st4 st10 st16 st17">本武里</tspan>
		<tspan x="1000" y="770" class="st18 st10 st16 st17">年 -43 ， 月 -12</tspan>
		
		<tspan x="800" y="840" class="st4 st10 st16 st17">同德里</tspan>
		<tspan x="1000" y="840" class="st18 st10 st16 st17">年 -47 ， 月 3</tspan>
		
		<tspan x="800" y="910" class="st4 st10 st16 st17">本和里</tspan>
		<tspan x="1000" y="910" class="st18 st10 st16 st17">年 -47 ， 月 -1</tspan>
		
		<tspan x="800" y="980" class="st4 st10 st16 st17">灣復里</tspan>
		<tspan x="1000" y="980" class="st18 st10 st16 st17">年 -47 ， 月 -15</tspan>
		
		<tspan x="800" y="1050" class="st4 st10 st16 st17">十美里</tspan>
		<tspan x="1000" y="1050" class="st18 st10 st16 st17">年 -51 ， 月 -3</tspan>
		
		<tspan x="800" y="1120" class="st4 st10 st16 st17">寶德里</tspan>
		<tspan x="1000" y="1120" class="st18 st10 st16 st17">年 -54 ， 月 15</tspan>
		
		<tspan x="800" y="1190" class="st4 st10 st16 st17">寶中里</tspan>
		<tspan x="1000" y="1190" class="st18 st10 st16 st17">年 -56 ， 月 -12</tspan>
		
		<tspan x="800" y="1260" class="st4 st10 st16 st17">正順里</tspan>
		<tspan x="1000" y="1260" class="st18 st10 st16 st17">年 -56 ， 月 -14</tspan>
		
		<tspan x="800" y="1330" class="st4 st10 st16 st17">本館里</tspan>
		<tspan x="1000" y="1330" class="st18 st10 st16 st17">年 -58 ， 月 -12</tspan>
		
		<tspan x="800" y="1400" class="st4 st10 st16 st17">本揚里</tspan>
		<tspan x="1000" y="1400" class="st18 st10 st16 st17">年 -60 ， 月 -4</tspan>
		
		<tspan x="800" y="1470" class="st4 st10 st16 st17">寶興里</tspan>
		<tspan x="1000" y="1470" class="st18 st10 st16 st17">年 -61 ， 月 -19</tspan>
		
		<tspan x="800" y="0" class="st4 st10 st16 st17">民享里</tspan>
		<tspan x="1000" y="0" class="st18 st10 st16 st17">年 -62 ， 月 -7</tspan>
		
		<tspan x="800" y="70" class="st4 st10 st16 st17">安泰里</tspan>
		<tspan x="1000" y="70" class="st18 st10 st16 st17">年 -65 ， 月 -8</tspan>
		
		<tspan x="800" y="140" class="st4 st10 st16 st17">寶安里</tspan>
		<tspan x="1000" y="140" class="st18 st10 st16 st17">年 -65 ， 月 6</tspan>
		
		<tspan x="800" y="210" class="st4 st10 st16 st17">安發里</tspan>
		<tspan x="1000" y="210" class="st18 st10 st16 st17">年 -66 ， 月 -23</tspan>
		
		<tspan x="800" y="280" class="st4 st10 st16 st17">鼎金里</tspan>
		<tspan x="1000" y="280" class="st18 st10 st16 st17">年 -67 ， 月 -18</tspan>
		
		<tspan x="800" y="350" class="st4 st10 st16 st17">寶華里</tspan>
		<tspan x="1000" y="350" class="st18 st10 st16 st17">年 -67 ， 月 -15</tspan>
		
		<tspan x="800" y="420" class="st4 st10 st16 st17">寶龍里</tspan>
		<tspan x="1000" y="420" class="st18 st10 st16 st17">年 -67 ， 月 -12</tspan>
		
		<tspan x="800" y="490" class="st4 st10 st16 st17">寶盛里</tspan>
		<tspan x="1000" y="490" class="st18 st10 st16 st17">年 -69 ， 月 -7</tspan>
		
		<tspan x="800" y="560" class="st4 st10 st16 st17">灣利里</tspan>
		<tspan x="1000" y="560" class="st18 st10 st16 st17">年 -71 ， 月 0</tspan>
		
		<tspan x="800" y="630" class="st4 st10 st16 st17">本上里</tspan>
		<tspan x="1000" y="630" class="st18 st10 st16 st17">年 -81 ， 月 -16</tspan>
		
		<tspan x="800" y="700" class="st4 st10 st16 st17">寶獅里</tspan>
		<tspan x="1000" y="700" class="st18 st10 st16 st17">年 -83 ， 月 -6</tspan>
		
		<tspan x="800" y="770" class="st4 st10 st16 st17">鼎盛里</tspan>
		<tspan x="1000" y="770" class="st18 st10 st16 st17">年 -84 ， 月 -9</tspan>
		
		<tspan x="800" y="840" class="st4 st10 st16 st17">博惠里</tspan>
		<tspan x="1000" y="840" class="st18 st10 st16 st17">年 -85 ， 月 -7</tspan>
		
		<tspan x="800" y="910" class="st4 st10 st16 st17">寶玉里</tspan>
		<tspan x="1000" y="910" class="st18 st10 st16 st17">年 -108 ， 月 -53</tspan>
		
		<tspan x="800" y="980" class="st4 st10 st16 st17">鼎西里</tspan>
		<tspan x="1000" y="980" class="st18 st10 st16 st17">年 -110 ， 月 -17</tspan>
		
		<tspan x="800" y="1050" class="st4 st10 st16 st17">寶珠里</tspan>
		<tspan x="1000" y="1050" class="st18 st10 st16 st17">年 -111 ， 月 -14</tspan>
		
		<tspan x="800" y="1120" class="st4 st10 st16 st17">正興里</tspan>
		<tspan x="1000" y="1120" class="st18 st10 st16 st17">年 -131 ， 月 -2</tspan>
		
		<tspan x="800" y="1190" class="st4 st10 st16 st17">灣中里</tspan>
		<tspan x="1000" y="1190" class="st18 st10 st16 st17">年 -135 ， 月 -20</tspan>
		
		<tspan x="800" y="1260" class="st4 st10 st16 st17">寶國里</tspan>
		<tspan x="1000" y="1260" class="st18 st10 st16 st17">年 -140 ， 月 -30</tspan>
		
		<tspan x="800" y="1330" class="st4 st10 st16 st17">鼎泰里</tspan>
		<tspan x="1000" y="1330" class="st18 st10 st16 st17">年 -209 ， 月 27</tspan>
			</text>
	<text transform="matrix(1 0 0 1 207 119.2712)" class="st18 st8 st20">高雄市三民區  |  2022年5月</text>
</svg>
