<?xml version="1.0" encoding="utf-8"?>
<!-- Generator: Adobe Illustrator 24.0.1, SVG Export Plug-In . SVG Version: 6.00 Build 0)  -->
<svg version="1.1" id="圖層_1" xmlns="http://www.w3.org/2000/svg" xmlns:xlink="http://www.w3.org/1999/xlink" x="0px" y="0px" viewBox="0 0 1840 2300" style="enable-background:new 0 0 1840 2300;" xml:space="preserve">
	<style type="text/css">
	.st0{fill:#0C354B;}
	.st1{fill:#E5A83D;}
	.st2{font-family:'NotoSansCJKtc-Bold-B5pc-H';}
	.st3{font-size:66px;}
	.st4{fill:#E3AA39;}
	.st5{font-family:'Arial-BoldMT';}
	.st6{font-size:291.7761px;}
	.st7{fill:none;stroke:#E3AA39;stroke-miterlimit:10;stroke-width:10;}
	.st8{font-family:'NotoSansCJKtc-Light-B5pc-H';}
	.st9{font-size:88px;}
	.st10{font-family:'NotoSansCJKtc-Medium-B5pc-H';}
	.st11{font-size:94px;}
	.st12{fill:none;stroke:#8AAFC1;stroke-miterlimit:10;}
	.st13{font-size:60.6493px;}
	.st14{font-size:106px;}
	.st15{fill:none;}
	.st16{font-size:44px;}
	.st17{letter-spacing:6;}
	.st18{fill:#FFFFFF;}
	.st19{letter-spacing:1;}
	.st20{font-size:68px;}
</style>
	<rect class="st0" width="1840" height="2300" />
	<text transform="matrix(1 0 0 1 94.5001 449.017)" class="st1 st2 st3">月變化</text>
	<g>
		<text transform="matrix(1 0 0 1 150 698.1412)" class="st4 st5 st6">-340</text>
	</g>
	<g>
		<rect x="800" y="385.6" class="st7" width="880" height="336.8" />
		<g>
			<text transform="matrix(1 0 0 1 830 519.593)" class="st4 st8 st9">月出生</text>
			<text transform="matrix(1 0 0 1 1330 521.5084)" class="st4 st10 st11">67</text>
			<text transform="matrix(1 0 0 1 830 649.4965)" class="st4 st8 st9">月死亡</text>
			<text transform="matrix(1 0 0 1 1330 651.7274)" class="st4 st10 st11">173</text>
		</g>
	</g>
	<line class="st12" x1="90" y1="745.5" x2="1643" y2="745.5" />
	<g>
		<g>
			<rect x="100" y="161.1" class="st4" width="500" height="190.4" />
			<g>
				<text transform="matrix(1 0 0 1 200 233.9079)" class="st0 st10 st13">年變化</text>
				<g>
					<text transform="matrix(1 0 0 1 110 330.2121)" class="st0 st5 st14">-3814</text>
				</g>
			</g>
		</g>
		<g>
			<rect x="640" y="161.1" class="st4" width="500" height="190.4" />
			<g>
				<text transform="matrix(1 0 0 1 740 233.908)" class="st0 st10 st13">年出生</text>
				<g>
					<text transform="matrix(1 0 0 1 650 330.2122)" class="st0 st5 st14">375</text>
				</g>
			</g>
		</g>
		<g>
			<rect x="1180" y="161.1" class="st4" width="500" height="190.4" />
			<g>
				<text transform="matrix(1 0 0 1 1280 233.908)" class="st0 st10 st13">年死亡</text>
				<g>
					<text transform="matrix(1 0 0 1 1190 330.2122)" class="st0 st5 st14">698</text>
				</g>
			</g>
		</g>
	</g>
	<rect x="90.6" y="772.1" class="st15" width="1141.8" height="314.8" />
	<text transform="matrix(1 0 0 1 90.5591 810.7965)">
		
		<tspan x="0" y="0" class="st4 st10 st16 st17">新生里</tspan>
		<tspan x="200" y="0" class="st18 st10 st16 st17">年 12 ， 月 5</tspan>
		
		<tspan x="0" y="70" class="st4 st10 st16 st17">大同里</tspan>
		<tspan x="200" y="70" class="st18 st10 st16 st17">年 -9 ， 月 -1</tspan>
		
		<tspan x="0" y="140" class="st4 st10 st16 st17">忠義里</tspan>
		<tspan x="200" y="140" class="st18 st10 st16 st17">年 -12 ， 月 3</tspan>
		
		<tspan x="0" y="210" class="st4 st10 st16 st17">勵行里</tspan>
		<tspan x="200" y="210" class="st18 st10 st16 st17">年 -22 ， 月 -9</tspan>
		
		<tspan x="0" y="280" class="st4 st10 st16 st17">後溪里</tspan>
		<tspan x="200" y="280" class="st18 st10 st16 st17">年 -22 ， 月 -8</tspan>
		
		<tspan x="0" y="350" class="st4 st10 st16 st17">網溪里</tspan>
		<tspan x="200" y="350" class="st18 st10 st16 st17">年 -24 ， 月 1</tspan>
		
		<tspan x="0" y="420" class="st4 st10 st16 st17">民富里</tspan>
		<tspan x="200" y="420" class="st18 st10 st16 st17">年 -24 ， 月 -6</tspan>
		
		<tspan x="0" y="490" class="st4 st10 st16 st17">正興里</tspan>
		<tspan x="200" y="490" class="st18 st10 st16 st17">年 -27 ， 月 3</tspan>
		
		<tspan x="0" y="560" class="st4 st10 st16 st17">永成里</tspan>
		<tspan x="200" y="560" class="st18 st10 st16 st17">年 -27 ， 月 0</tspan>
		
		<tspan x="0" y="630" class="st4 st10 st16 st17">秀朗里</tspan>
		<tspan x="200" y="630" class="st18 st10 st16 st17">年 -28 ， 月 -1</tspan>
		
		<tspan x="0" y="700" class="st4 st10 st16 st17">保平里</tspan>
		<tspan x="200" y="700" class="st18 st10 st16 st17">年 -29 ， 月 0</tspan>
		
		<tspan x="0" y="770" class="st4 st10 st16 st17">民本里</tspan>
		<tspan x="200" y="770" class="st18 st10 st16 st17">年 -33 ， 月 -13</tspan>
		
		<tspan x="0" y="840" class="st4 st10 st16 st17">上溪里</tspan>
		<tspan x="200" y="840" class="st18 st10 st16 st17">年 -33 ， 月 2</tspan>
		
		<tspan x="0" y="910" class="st4 st10 st16 st17">前溪里</tspan>
		<tspan x="200" y="910" class="st18 st10 st16 st17">年 -35 ， 月 4</tspan>
		
		<tspan x="0" y="980" class="st4 st10 st16 st17">河濱里</tspan>
		<tspan x="200" y="980" class="st18 st10 st16 st17">年 -36 ， 月 -11</tspan>
		
		<tspan x="0" y="1050" class="st4 st10 st16 st17">秀得里</tspan>
		<tspan x="200" y="1050" class="st18 st10 st16 st17">年 -37 ， 月 0</tspan>
		
		<tspan x="0" y="1120" class="st4 st10 st16 st17">光復里</tspan>
		<tspan x="200" y="1120" class="st18 st10 st16 st17">年 -38 ， 月 2</tspan>
		
		<tspan x="0" y="1190" class="st4 st10 st16 st17">秀林里</tspan>
		<tspan x="200" y="1190" class="st18 st10 st16 st17">年 -42 ， 月 -2</tspan>
		
		<tspan x="0" y="1260" class="st4 st10 st16 st17">仁愛里</tspan>
		<tspan x="200" y="1260" class="st18 st10 st16 st17">年 -43 ， 月 -9</tspan>
		
		<tspan x="0" y="1330" class="st4 st10 st16 st17">頂溪里</tspan>
		<tspan x="200" y="1330" class="st18 st10 st16 st17">年 -47 ， 月 8</tspan>
		
		<tspan x="0" y="1400" class="st4 st10 st16 st17">下溪里</tspan>
		<tspan x="200" y="1400" class="st18 st10 st16 st17">年 -47 ， 月 4</tspan>
		
		<tspan x="0" y="1470" class="st4 st10 st16 st17">河堤里</tspan>
		<tspan x="200" y="1470" class="st18 st10 st16 st17">年 -48 ， 月 -6</tspan>
		
		<tspan x="800" y="0" class="st4 st10 st16 st17">秀元里</tspan>
		<tspan x="1000" y="0" class="st18 st10 st16 st17">年 -51 ， 月 -4</tspan>
		
		<tspan x="800" y="70" class="st4 st10 st16 st17">和平里</tspan>
		<tspan x="1000" y="70" class="st18 st10 st16 st17">年 -51 ， 月 -3</tspan>
		
		<tspan x="800" y="140" class="st4 st10 st16 st17">復興里</tspan>
		<tspan x="1000" y="140" class="st18 st10 st16 st17">年 -52 ， 月 -5</tspan>
		
		<tspan x="800" y="210" class="st4 st10 st16 st17">中興里</tspan>
		<tspan x="1000" y="210" class="st18 st10 st16 st17">年 -53 ， 月 -2</tspan>
		
		<tspan x="800" y="280" class="st4 st10 st16 st17">永樂里</tspan>
		<tspan x="1000" y="280" class="st18 st10 st16 st17">年 -54 ， 月 -8</tspan>
		
		<tspan x="800" y="350" class="st4 st10 st16 st17">協和里</tspan>
		<tspan x="1000" y="350" class="st18 st10 st16 st17">年 -54 ， 月 3</tspan>
		
		<tspan x="800" y="420" class="st4 st10 st16 st17">民生里</tspan>
		<tspan x="1000" y="420" class="st18 st10 st16 st17">年 -54 ， 月 -18</tspan>
		
		<tspan x="800" y="490" class="st4 st10 st16 st17">新廍里</tspan>
		<tspan x="1000" y="490" class="st18 st10 st16 st17">年 -56 ， 月 -11</tspan>
		
		<tspan x="800" y="560" class="st4 st10 st16 st17">永元里</tspan>
		<tspan x="1000" y="560" class="st18 st10 st16 st17">年 -59 ， 月 -3</tspan>
		
		<tspan x="800" y="630" class="st4 st10 st16 st17">秀成里</tspan>
		<tspan x="1000" y="630" class="st18 st10 st16 st17">年 -60 ， 月 -9</tspan>
		
		<tspan x="800" y="700" class="st4 st10 st16 st17">潭安里</tspan>
		<tspan x="1000" y="700" class="st18 st10 st16 st17">年 -60 ， 月 -6</tspan>
		
		<tspan x="800" y="770" class="st4 st10 st16 st17">雙和里</tspan>
		<tspan x="1000" y="770" class="st18 st10 st16 st17">年 -60 ， 月 -9</tspan>
		
		<tspan x="800" y="840" class="st4 st10 st16 st17">永福里</tspan>
		<tspan x="1000" y="840" class="st18 st10 st16 st17">年 -61 ， 月 0</tspan>
		
		<tspan x="800" y="910" class="st4 st10 st16 st17">秀和里</tspan>
		<tspan x="1000" y="910" class="st18 st10 st16 st17">年 -61 ， 月 3</tspan>
		
		<tspan x="800" y="980" class="st4 st10 st16 st17">民族里</tspan>
		<tspan x="1000" y="980" class="st18 st10 st16 st17">年 -62 ， 月 -6</tspan>
		
		<tspan x="800" y="1050" class="st4 st10 st16 st17">智光里</tspan>
		<tspan x="1000" y="1050" class="st18 st10 st16 st17">年 -62 ， 月 -7</tspan>
		
		<tspan x="800" y="1120" class="st4 st10 st16 st17">信義里</tspan>
		<tspan x="1000" y="1120" class="st18 st10 st16 st17">年 -62 ， 月 -6</tspan>
		
		<tspan x="800" y="1190" class="st4 st10 st16 st17">民治里</tspan>
		<tspan x="1000" y="1190" class="st18 st10 st16 st17">年 -64 ， 月 -8</tspan>
		
		<tspan x="800" y="1260" class="st4 st10 st16 st17">光明里</tspan>
		<tspan x="1000" y="1260" class="st18 st10 st16 st17">年 -66 ， 月 -15</tspan>
		
		<tspan x="800" y="1330" class="st4 st10 st16 st17">大新里</tspan>
		<tspan x="1000" y="1330" class="st18 st10 st16 st17">年 -69 ， 月 -11</tspan>
		
		<tspan x="800" y="1400" class="st4 st10 st16 st17">永興里</tspan>
		<tspan x="1000" y="1400" class="st18 st10 st16 st17">年 -74 ， 月 -7</tspan>
		
		<tspan x="800" y="1470" class="st4 st10 st16 st17">桂林里</tspan>
		<tspan x="1000" y="1470" class="st18 st10 st16 st17">年 -75 ， 月 -16</tspan>
		
		<tspan x="800" y="0" class="st4 st10 st16 st17">民樂里</tspan>
		<tspan x="1000" y="0" class="st18 st10 st16 st17">年 -77 ， 月 -17</tspan>
		
		<tspan x="800" y="70" class="st4 st10 st16 st17">竹林里</tspan>
		<tspan x="1000" y="70" class="st18 st10 st16 st17">年 -79 ， 月 -16</tspan>
		
		<tspan x="800" y="140" class="st4 st10 st16 st17">永貞里</tspan>
		<tspan x="1000" y="140" class="st18 st10 st16 st17">年 -79 ， 月 -10</tspan>
		
		<tspan x="800" y="210" class="st4 st10 st16 st17">得和里</tspan>
		<tspan x="1000" y="210" class="st18 st10 st16 st17">年 -83 ， 月 -10</tspan>
		
		<tspan x="800" y="280" class="st4 st10 st16 st17">文化里</tspan>
		<tspan x="1000" y="280" class="st18 st10 st16 st17">年 -85 ， 月 -2</tspan>
		
		<tspan x="800" y="350" class="st4 st10 st16 st17">店街里</tspan>
		<tspan x="1000" y="350" class="st18 st10 st16 st17">年 -86 ， 月 -4</tspan>
		
		<tspan x="800" y="420" class="st4 st10 st16 st17">福林里</tspan>
		<tspan x="1000" y="420" class="st18 st10 st16 st17">年 -89 ， 月 -15</tspan>
		
		<tspan x="800" y="490" class="st4 st10 st16 st17">中溪里</tspan>
		<tspan x="1000" y="490" class="st18 st10 st16 st17">年 -90 ， 月 -11</tspan>
		
		<tspan x="800" y="560" class="st4 st10 st16 st17">民權里</tspan>
		<tspan x="1000" y="560" class="st18 st10 st16 st17">年 -92 ， 月 6</tspan>
		
		<tspan x="800" y="630" class="st4 st10 st16 st17">水源里</tspan>
		<tspan x="1000" y="630" class="st18 st10 st16 st17">年 -97 ， 月 2</tspan>
		
		<tspan x="800" y="700" class="st4 st10 st16 st17">上林里</tspan>
		<tspan x="1000" y="700" class="st18 st10 st16 st17">年 -99 ， 月 -15</tspan>
		
		<tspan x="800" y="770" class="st4 st10 st16 st17">永安里</tspan>
		<tspan x="1000" y="770" class="st18 st10 st16 st17">年 -99 ， 月 3</tspan>
		
		<tspan x="800" y="840" class="st4 st10 st16 st17">福和里</tspan>
		<tspan x="1000" y="840" class="st18 st10 st16 st17">年 -105 ， 月 -11</tspan>
		
		<tspan x="800" y="910" class="st4 st10 st16 st17">潭墘里</tspan>
		<tspan x="1000" y="910" class="st18 st10 st16 st17">年 -114 ， 月 -25</tspan>
		
		<tspan x="800" y="980" class="st4 st10 st16 st17">安和里</tspan>
		<tspan x="1000" y="980" class="st18 st10 st16 st17">年 -123 ， 月 -33</tspan>
		
		<tspan x="800" y="1050" class="st4 st10 st16 st17">保順里</tspan>
		<tspan x="1000" y="1050" class="st18 st10 st16 st17">年 -139 ， 月 21</tspan>
		
		<tspan x="800" y="1120" class="st4 st10 st16 st17">豫溪里</tspan>
		<tspan x="1000" y="1120" class="st18 st10 st16 st17">年 -144 ， 月 -9</tspan>
		
		<tspan x="800" y="1190" class="st4 st10 st16 st17">保安里</tspan>
		<tspan x="1000" y="1190" class="st18 st10 st16 st17">年 -163 ， 月 -12</tspan>
			</text>
	<text transform="matrix(1 0 0 1 207 119.2712)" class="st18 st8 st20">新北市永和區  |  2022年5月</text>
</svg>
