<?xml version="1.0" encoding="utf-8"?>
<!-- Generator: Adobe Illustrator 24.0.1, SVG Export Plug-In . SVG Version: 6.00 Build 0)  -->
<svg version="1.1" id="圖層_1" xmlns="http://www.w3.org/2000/svg" xmlns:xlink="http://www.w3.org/1999/xlink" x="0px" y="0px" viewBox="0 0 1840 2300" style="enable-background:new 0 0 1840 2300;" xml:space="preserve">
	<style type="text/css">
	.st0{fill:#0C354B;}
	.st1{fill:#E5A83D;}
	.st2{font-family:'NotoSansCJKtc-Bold-B5pc-H';}
	.st3{font-size:66px;}
	.st4{fill:#E3AA39;}
	.st5{font-family:'Arial-BoldMT';}
	.st6{font-size:291.7761px;}
	.st7{fill:none;stroke:#E3AA39;stroke-miterlimit:10;stroke-width:10;}
	.st8{font-family:'NotoSansCJKtc-Light-B5pc-H';}
	.st9{font-size:88px;}
	.st10{font-family:'NotoSansCJKtc-Medium-B5pc-H';}
	.st11{font-size:94px;}
	.st12{fill:none;stroke:#8AAFC1;stroke-miterlimit:10;}
	.st13{font-size:60.6493px;}
	.st14{font-size:106px;}
	.st15{fill:none;}
	.st16{font-size:44px;}
	.st17{letter-spacing:6;}
	.st18{fill:#FFFFFF;}
	.st19{letter-spacing:1;}
	.st20{font-size:68px;}
</style>
	<rect class="st0" width="1840" height="2300" />
	<text transform="matrix(1 0 0 1 94.5001 449.017)" class="st1 st2 st3">月變化</text>
	<g>
		<text transform="matrix(1 0 0 1 150 698.1412)" class="st4 st5 st6">-215</text>
	</g>
	<g>
		<rect x="800" y="385.6" class="st7" width="880" height="336.8" />
		<g>
			<text transform="matrix(1 0 0 1 830 519.593)" class="st4 st8 st9">月出生</text>
			<text transform="matrix(1 0 0 1 1330 521.5084)" class="st4 st10 st11">189</text>
			<text transform="matrix(1 0 0 1 830 649.4965)" class="st4 st8 st9">月死亡</text>
			<text transform="matrix(1 0 0 1 1330 651.7274)" class="st4 st10 st11">371</text>
		</g>
	</g>
	<line class="st12" x1="90" y1="745.5" x2="1643" y2="745.5" />
	<g>
		<g>
			<rect x="100" y="161.1" class="st4" width="500" height="190.4" />
			<g>
				<text transform="matrix(1 0 0 1 200 233.9079)" class="st0 st10 st13">年變化</text>
				<g>
					<text transform="matrix(1 0 0 1 110 330.2121)" class="st0 st5 st14">-4720</text>
				</g>
			</g>
		</g>
		<g>
			<rect x="640" y="161.1" class="st4" width="500" height="190.4" />
			<g>
				<text transform="matrix(1 0 0 1 740 233.908)" class="st0 st10 st13">年出生</text>
				<g>
					<text transform="matrix(1 0 0 1 650 330.2122)" class="st0 st5 st14">1195</text>
				</g>
			</g>
		</g>
		<g>
			<rect x="1180" y="161.1" class="st4" width="500" height="190.4" />
			<g>
				<text transform="matrix(1 0 0 1 1280 233.908)" class="st0 st10 st13">年死亡</text>
				<g>
					<text transform="matrix(1 0 0 1 1190 330.2122)" class="st0 st5 st14">1614</text>
				</g>
			</g>
		</g>
	</g>
	<rect x="90.6" y="772.1" class="st15" width="1141.8" height="314.8" />
	<text transform="matrix(1 0 0 1 90.5591 810.7965)">
		
		<tspan x="0" y="0" class="st4 st10 st16 st17">中正里</tspan>
		<tspan x="200" y="0" class="st18 st10 st16 st17">年 563 ， 月 111</tspan>
		
		<tspan x="0" y="70" class="st4 st10 st16 st17">溪頭里</tspan>
		<tspan x="200" y="70" class="st18 st10 st16 st17">年 275 ， 月 57</tspan>
		
		<tspan x="0" y="140" class="st4 st10 st16 st17">福祿里</tspan>
		<tspan x="200" y="140" class="st18 st10 st16 st17">年 82 ， 月 37</tspan>
		
		<tspan x="0" y="210" class="st4 st10 st16 st17">福安里</tspan>
		<tspan x="200" y="210" class="st18 st10 st16 st17">年 30 ， 月 25</tspan>
		
		<tspan x="0" y="280" class="st4 st10 st16 st17">居仁里</tspan>
		<tspan x="200" y="280" class="st18 st10 st16 st17">年 27 ， 月 20</tspan>
		
		<tspan x="0" y="350" class="st4 st10 st16 st17">文德里</tspan>
		<tspan x="200" y="350" class="st18 st10 st16 st17">年 27 ， 月 20</tspan>
		
		<tspan x="0" y="420" class="st4 st10 st16 st17">青翠里</tspan>
		<tspan x="200" y="420" class="st18 st10 st16 st17">年 22 ， 月 10</tspan>
		
		<tspan x="0" y="490" class="st4 st10 st16 st17">赤松里</tspan>
		<tspan x="200" y="490" class="st18 st10 st16 st17">年 19 ， 月 3</tspan>
		
		<tspan x="0" y="560" class="st4 st10 st16 st17">黃石里</tspan>
		<tspan x="200" y="560" class="st18 st10 st16 st17">年 2 ， 月 0</tspan>
		
		<tspan x="0" y="630" class="st4 st10 st16 st17">華貴里</tspan>
		<tspan x="200" y="630" class="st18 st10 st16 st17">年 0 ， 月 7</tspan>
		
		<tspan x="0" y="700" class="st4 st10 st16 st17">景星里</tspan>
		<tspan x="200" y="700" class="st18 st10 st16 st17">年 0 ， 月 12</tspan>
		
		<tspan x="0" y="770" class="st4 st10 st16 st17">莊敬里</tspan>
		<tspan x="200" y="770" class="st18 st10 st16 st17">年 -1 ， 月 -5</tspan>
		
		<tspan x="0" y="840" class="st4 st10 st16 st17">松柏里</tspan>
		<tspan x="200" y="840" class="st18 st10 st16 st17">年 -1 ， 月 12</tspan>
		
		<tspan x="0" y="910" class="st4 st10 st16 st17">介壽里</tspan>
		<tspan x="200" y="910" class="st18 st10 st16 st17">年 -4 ， 月 0</tspan>
		
		<tspan x="0" y="980" class="st4 st10 st16 st17">香雅里</tspan>
		<tspan x="200" y="980" class="st18 st10 st16 st17">年 -6 ， 月 0</tspan>
		
		<tspan x="0" y="1050" class="st4 st10 st16 st17">留侯里</tspan>
		<tspan x="200" y="1050" class="st18 st10 st16 st17">年 -11 ， 月 -2</tspan>
		
		<tspan x="0" y="1120" class="st4 st10 st16 st17">自立里</tspan>
		<tspan x="200" y="1120" class="st18 st10 st16 st17">年 -11 ， 月 2</tspan>
		
		<tspan x="0" y="1190" class="st4 st10 st16 st17">永安里</tspan>
		<tspan x="200" y="1190" class="st18 st10 st16 st17">年 -13 ， 月 -2</tspan>
		
		<tspan x="0" y="1260" class="st4 st10 st16 st17">福翠里</tspan>
		<tspan x="200" y="1260" class="st18 st10 st16 st17">年 -14 ， 月 -2</tspan>
		
		<tspan x="0" y="1330" class="st4 st10 st16 st17">五權里</tspan>
		<tspan x="200" y="1330" class="st18 st10 st16 st17">年 -15 ， 月 -3</tspan>
		
		<tspan x="0" y="1400" class="st4 st10 st16 st17">僑中里</tspan>
		<tspan x="200" y="1400" class="st18 st10 st16 st17">年 -16 ， 月 -12</tspan>
		
		<tspan x="0" y="1470" class="st4 st10 st16 st17">振義里</tspan>
		<tspan x="200" y="1470" class="st18 st10 st16 st17">年 -17 ， 月 -8</tspan>
		
		<tspan x="800" y="0" class="st4 st10 st16 st17">港尾里</tspan>
		<tspan x="1000" y="0" class="st18 st10 st16 st17">年 -17 ， 月 -5</tspan>
		
		<tspan x="800" y="70" class="st4 st10 st16 st17">正泰里</tspan>
		<tspan x="1000" y="70" class="st18 st10 st16 st17">年 -18 ， 月 -11</tspan>
		
		<tspan x="800" y="140" class="st4 st10 st16 st17">仁翠里</tspan>
		<tspan x="1000" y="140" class="st18 st10 st16 st17">年 -18 ， 月 0</tspan>
		
		<tspan x="800" y="210" class="st4 st10 st16 st17">玉光里</tspan>
		<tspan x="1000" y="210" class="st18 st10 st16 st17">年 -19 ， 月 0</tspan>
		
		<tspan x="800" y="280" class="st4 st10 st16 st17">復興里</tspan>
		<tspan x="1000" y="280" class="st18 st10 st16 st17">年 -21 ， 月 2</tspan>
		
		<tspan x="800" y="350" class="st4 st10 st16 st17">堂春里</tspan>
		<tspan x="1000" y="350" class="st18 st10 st16 st17">年 -21 ， 月 -5</tspan>
		
		<tspan x="800" y="420" class="st4 st10 st16 st17">廣新里</tspan>
		<tspan x="1000" y="420" class="st18 st10 st16 st17">年 -21 ， 月 2</tspan>
		
		<tspan x="800" y="490" class="st4 st10 st16 st17">歡園里</tspan>
		<tspan x="1000" y="490" class="st18 st10 st16 st17">年 -22 ， 月 -3</tspan>
		
		<tspan x="800" y="560" class="st4 st10 st16 st17">民族里</tspan>
		<tspan x="1000" y="560" class="st18 st10 st16 st17">年 -22 ， 月 -1</tspan>
		
		<tspan x="800" y="630" class="st4 st10 st16 st17">江翠里</tspan>
		<tspan x="1000" y="630" class="st18 st10 st16 st17">年 -22 ， 月 9</tspan>
		
		<tspan x="800" y="700" class="st4 st10 st16 st17">後埔里</tspan>
		<tspan x="1000" y="700" class="st18 st10 st16 st17">年 -23 ， 月 3</tspan>
		
		<tspan x="800" y="770" class="st4 st10 st16 st17">流芳里</tspan>
		<tspan x="1000" y="770" class="st18 st10 st16 st17">年 -23 ， 月 0</tspan>
		
		<tspan x="800" y="840" class="st4 st10 st16 st17">文聖里</tspan>
		<tspan x="1000" y="840" class="st18 st10 st16 st17">年 -23 ， 月 8</tspan>
		
		<tspan x="800" y="910" class="st4 st10 st16 st17">忠誠里</tspan>
		<tspan x="1000" y="910" class="st18 st10 st16 st17">年 -24 ， 月 -13</tspan>
		
		<tspan x="800" y="980" class="st4 st10 st16 st17">溪北里</tspan>
		<tspan x="1000" y="980" class="st18 st10 st16 st17">年 -24 ， 月 -2</tspan>
		
		<tspan x="800" y="1050" class="st4 st10 st16 st17">嵐翠里</tspan>
		<tspan x="1000" y="1050" class="st18 st10 st16 st17">年 -24 ， 月 -6</tspan>
		
		<tspan x="800" y="1120" class="st4 st10 st16 st17">華興里</tspan>
		<tspan x="1000" y="1120" class="st18 st10 st16 st17">年 -25 ， 月 -7</tspan>
		
		<tspan x="800" y="1190" class="st4 st10 st16 st17">民生里</tspan>
		<tspan x="1000" y="1190" class="st18 st10 st16 st17">年 -25 ， 月 1</tspan>
		
		<tspan x="800" y="1260" class="st4 st10 st16 st17">東丘里</tspan>
		<tspan x="1000" y="1260" class="st18 st10 st16 st17">年 -26 ， 月 -3</tspan>
		
		<tspan x="800" y="1330" class="st4 st10 st16 st17">光復里</tspan>
		<tspan x="1000" y="1330" class="st18 st10 st16 st17">年 -27 ， 月 0</tspan>
		
		<tspan x="800" y="1400" class="st4 st10 st16 st17">國泰里</tspan>
		<tspan x="1000" y="1400" class="st18 st10 st16 st17">年 -28 ， 月 -11</tspan>
		
		<tspan x="800" y="1470" class="st4 st10 st16 st17">西安里</tspan>
		<tspan x="1000" y="1470" class="st18 st10 st16 st17">年 -29 ， 月 -3</tspan>
		
		<tspan x="800" y="0" class="st4 st10 st16 st17">公舘里</tspan>
		<tspan x="1000" y="0" class="st18 st10 st16 st17">年 -29 ， 月 -4</tspan>
		
		<tspan x="800" y="70" class="st4 st10 st16 st17">柏翠里</tspan>
		<tspan x="1000" y="70" class="st18 st10 st16 st17">年 -30 ， 月 12</tspan>
		
		<tspan x="800" y="140" class="st4 st10 st16 st17">長壽里</tspan>
		<tspan x="1000" y="140" class="st18 st10 st16 st17">年 -30 ， 月 0</tspan>
		
		<tspan x="800" y="210" class="st4 st10 st16 st17">廣福里</tspan>
		<tspan x="1000" y="210" class="st18 st10 st16 st17">年 -30 ， 月 -5</tspan>
		
		<tspan x="800" y="280" class="st4 st10 st16 st17">陽明里</tspan>
		<tspan x="1000" y="280" class="st18 st10 st16 st17">年 -31 ， 月 -12</tspan>
		
		<tspan x="800" y="350" class="st4 st10 st16 st17">挹秀里</tspan>
		<tspan x="1000" y="350" class="st18 st10 st16 st17">年 -32 ， 月 -3</tspan>
		
		<tspan x="800" y="420" class="st4 st10 st16 st17">光仁里</tspan>
		<tspan x="1000" y="420" class="st18 st10 st16 st17">年 -32 ， 月 -1</tspan>
		
		<tspan x="800" y="490" class="st4 st10 st16 st17">香社里</tspan>
		<tspan x="1000" y="490" class="st18 st10 st16 st17">年 -33 ， 月 10</tspan>
		
		<tspan x="800" y="560" class="st4 st10 st16 st17">福壽里</tspan>
		<tspan x="1000" y="560" class="st18 st10 st16 st17">年 -34 ， 月 -5</tspan>
		
		<tspan x="800" y="630" class="st4 st10 st16 st17">民權里</tspan>
		<tspan x="1000" y="630" class="st18 st10 st16 st17">年 -34 ， 月 0</tspan>
		
		<tspan x="800" y="700" class="st4 st10 st16 st17">民安里</tspan>
		<tspan x="1000" y="700" class="st18 st10 st16 st17">年 -35 ， 月 -9</tspan>
		
		<tspan x="800" y="770" class="st4 st10 st16 st17">華福里</tspan>
		<tspan x="1000" y="770" class="st18 st10 st16 st17">年 -35 ， 月 -4</tspan>
		
		<tspan x="800" y="840" class="st4 st10 st16 st17">東安里</tspan>
		<tspan x="1000" y="840" class="st18 st10 st16 st17">年 -36 ， 月 -12</tspan>
		
		<tspan x="800" y="910" class="st4 st10 st16 st17">金華里</tspan>
		<tspan x="1000" y="910" class="st18 st10 st16 st17">年 -36 ， 月 -5</tspan>
		
		<tspan x="800" y="980" class="st4 st10 st16 st17">仁愛里</tspan>
		<tspan x="1000" y="980" class="st18 st10 st16 st17">年 -38 ， 月 2</tspan>
		
		<tspan x="800" y="1050" class="st4 st10 st16 st17">新民里</tspan>
		<tspan x="1000" y="1050" class="st18 st10 st16 st17">年 -38 ， 月 6</tspan>
		
		<tspan x="800" y="1120" class="st4 st10 st16 st17">廣德里</tspan>
		<tspan x="1000" y="1120" class="st18 st10 st16 st17">年 -38 ， 月 11</tspan>
		
		<tspan x="800" y="1190" class="st4 st10 st16 st17">朝陽里</tspan>
		<tspan x="1000" y="1190" class="st18 st10 st16 st17">年 -39 ， 月 -5</tspan>
		
		<tspan x="800" y="1260" class="st4 st10 st16 st17">吉翠里</tspan>
		<tspan x="1000" y="1260" class="st18 st10 st16 st17">年 -40 ， 月 -3</tspan>
		
		<tspan x="800" y="1330" class="st4 st10 st16 st17">信義里</tspan>
		<tspan x="1000" y="1330" class="st18 st10 st16 st17">年 -42 ， 月 -12</tspan>
		
		<tspan x="800" y="1400" class="st4 st10 st16 st17">雙玉里</tspan>
		<tspan x="1000" y="1400" class="st18 st10 st16 st17">年 -42 ， 月 -8</tspan>
		
		<tspan x="800" y="1470" class="st4 st10 st16 st17">百壽里</tspan>
		<tspan x="1000" y="1470" class="st18 st10 st16 st17">年 -43 ， 月 -3</tspan>
		
		<tspan x="800" y="0" class="st4 st10 st16 st17">滿翠里</tspan>
		<tspan x="1000" y="0" class="st18 st10 st16 st17">年 -44 ， 月 2</tspan>
		
		<tspan x="800" y="70" class="st4 st10 st16 st17">幸福里</tspan>
		<tspan x="1000" y="70" class="st18 st10 st16 st17">年 -44 ， 月 -3</tspan>
		
		<tspan x="800" y="140" class="st4 st10 st16 st17">懷翠里</tspan>
		<tspan x="1000" y="140" class="st18 st10 st16 st17">年 -44 ， 月 0</tspan>
		
		<tspan x="800" y="210" class="st4 st10 st16 st17">和平里</tspan>
		<tspan x="1000" y="210" class="st18 st10 st16 st17">年 -45 ， 月 -4</tspan>
		
		<tspan x="800" y="280" class="st4 st10 st16 st17">新埔里</tspan>
		<tspan x="1000" y="280" class="st18 st10 st16 st17">年 -47 ， 月 -3</tspan>
		
		<tspan x="800" y="350" class="st4 st10 st16 st17">重慶里</tspan>
		<tspan x="1000" y="350" class="st18 st10 st16 st17">年 -47 ， 月 2</tspan>
		
		<tspan x="800" y="420" class="st4 st10 st16 st17">福星里</tspan>
		<tspan x="1000" y="420" class="st18 st10 st16 st17">年 -47 ， 月 9</tspan>
		
		<tspan x="800" y="490" class="st4 st10 st16 st17">華翠里</tspan>
		<tspan x="1000" y="490" class="st18 st10 st16 st17">年 -47 ， 月 -3</tspan>
		
		<tspan x="800" y="560" class="st4 st10 st16 st17">香丘里</tspan>
		<tspan x="1000" y="560" class="st18 st10 st16 st17">年 -47 ， 月 -10</tspan>
		
		<tspan x="800" y="630" class="st4 st10 st16 st17">新海里</tspan>
		<tspan x="1000" y="630" class="st18 st10 st16 st17">年 -48 ， 月 -3</tspan>
		
		<tspan x="800" y="700" class="st4 st10 st16 st17">振興里</tspan>
		<tspan x="1000" y="700" class="st18 st10 st16 st17">年 -49 ， 月 -5</tspan>
		
		<tspan x="800" y="770" class="st4 st10 st16 st17">新生里</tspan>
		<tspan x="1000" y="770" class="st18 st10 st16 st17">年 -49 ， 月 -10</tspan>
		
		<tspan x="800" y="840" class="st4 st10 st16 st17">文化里</tspan>
		<tspan x="1000" y="840" class="st18 st10 st16 st17">年 -49 ， 月 -7</tspan>
		
		<tspan x="800" y="910" class="st4 st10 st16 st17">富貴里</tspan>
		<tspan x="1000" y="910" class="st18 st10 st16 st17">年 -50 ， 月 0</tspan>
		
		<tspan x="800" y="980" class="st4 st10 st16 st17">聚安里</tspan>
		<tspan x="1000" y="980" class="st18 st10 st16 st17">年 -52 ， 月 -14</tspan>
		
		<tspan x="800" y="1050" class="st4 st10 st16 st17">松翠里</tspan>
		<tspan x="1000" y="1050" class="st18 st10 st16 st17">年 -52 ， 月 -7</tspan>
		
		<tspan x="800" y="1120" class="st4 st10 st16 st17">浮洲里</tspan>
		<tspan x="1000" y="1120" class="st18 st10 st16 st17">年 -53 ， 月 -12</tspan>
		
		<tspan x="800" y="1190" class="st4 st10 st16 st17">崑崙里</tspan>
		<tspan x="1000" y="1190" class="st18 st10 st16 st17">年 -54 ， 月 -1</tspan>
		
		<tspan x="800" y="1260" class="st4 st10 st16 st17">中山里</tspan>
		<tspan x="1000" y="1260" class="st18 st10 st16 st17">年 -57 ， 月 -1</tspan>
		
		<tspan x="800" y="1330" class="st4 st10 st16 st17">新興里</tspan>
		<tspan x="1000" y="1330" class="st18 st10 st16 st17">年 -58 ， 月 0</tspan>
		
		<tspan x="800" y="1400" class="st4 st10 st16 st17">大觀里</tspan>
		<tspan x="1000" y="1400" class="st18 st10 st16 st17">年 -58 ， 月 -21</tspan>
		
		<tspan x="800" y="1470" class="st4 st10 st16 st17">漢生里</tspan>
		<tspan x="1000" y="1470" class="st18 st10 st16 st17">年 -59 ， 月 -1</tspan>
		
		<tspan x="800" y="0" class="st4 st10 st16 st17">華中里</tspan>
		<tspan x="1000" y="0" class="st18 st10 st16 st17">年 -61 ， 月 -5</tspan>
		
		<tspan x="800" y="70" class="st4 st10 st16 st17">九如里</tspan>
		<tspan x="1000" y="70" class="st18 st10 st16 st17">年 -61 ， 月 -7</tspan>
		
		<tspan x="800" y="140" class="st4 st10 st16 st17">聯翠里</tspan>
		<tspan x="1000" y="140" class="st18 st10 st16 st17">年 -62 ， 月 1</tspan>
		
		<tspan x="800" y="210" class="st4 st10 st16 st17">莒光里</tspan>
		<tspan x="1000" y="210" class="st18 st10 st16 st17">年 -62 ， 月 12</tspan>
		
		<tspan x="800" y="280" class="st4 st10 st16 st17">成和里</tspan>
		<tspan x="1000" y="280" class="st18 st10 st16 st17">年 -65 ， 月 0</tspan>
		
		<tspan x="800" y="350" class="st4 st10 st16 st17">龍安里</tspan>
		<tspan x="1000" y="350" class="st18 st10 st16 st17">年 -67 ， 月 -22</tspan>
		
		<tspan x="800" y="420" class="st4 st10 st16 st17">福丘里</tspan>
		<tspan x="1000" y="420" class="st18 st10 st16 st17">年 -67 ， 月 0</tspan>
		
		<tspan x="800" y="490" class="st4 st10 st16 st17">福德里</tspan>
		<tspan x="1000" y="490" class="st18 st10 st16 st17">年 -67 ， 月 -8</tspan>
		
		<tspan x="800" y="560" class="st4 st10 st16 st17">港嘴里</tspan>
		<tspan x="1000" y="560" class="st18 st10 st16 st17">年 -67 ， 月 -3</tspan>
		
		<tspan x="800" y="630" class="st4 st10 st16 st17">鄉雲里</tspan>
		<tspan x="1000" y="630" class="st18 st10 st16 st17">年 -67 ， 月 -11</tspan>
		
		<tspan x="800" y="700" class="st4 st10 st16 st17">宏翠里</tspan>
		<tspan x="1000" y="700" class="st18 st10 st16 st17">年 -67 ， 月 2</tspan>
		
		<tspan x="800" y="770" class="st4 st10 st16 st17">港德里</tspan>
		<tspan x="1000" y="770" class="st18 st10 st16 st17">年 -68 ， 月 -27</tspan>
		
		<tspan x="800" y="840" class="st4 st10 st16 st17">長安里</tspan>
		<tspan x="1000" y="840" class="st18 st10 st16 st17">年 -69 ， 月 2</tspan>
		
		<tspan x="800" y="910" class="st4 st10 st16 st17">光華里</tspan>
		<tspan x="1000" y="910" class="st18 st10 st16 st17">年 -70 ， 月 -12</tspan>
		
		<tspan x="800" y="980" class="st4 st10 st16 st17">新翠里</tspan>
		<tspan x="1000" y="980" class="st18 st10 st16 st17">年 -71 ， 月 -20</tspan>
		
		<tspan x="800" y="1050" class="st4 st10 st16 st17">大安里</tspan>
		<tspan x="1000" y="1050" class="st18 st10 st16 st17">年 -72 ， 月 -8</tspan>
		
		<tspan x="800" y="1120" class="st4 st10 st16 st17">海山里</tspan>
		<tspan x="1000" y="1120" class="st18 st10 st16 st17">年 -72 ， 月 -17</tspan>
		
		<tspan x="800" y="1190" class="st4 st10 st16 st17">光榮里</tspan>
		<tspan x="1000" y="1190" class="st18 st10 st16 st17">年 -73 ， 月 -9</tspan>
		
		<tspan x="800" y="1260" class="st4 st10 st16 st17">文翠里</tspan>
		<tspan x="1000" y="1260" class="st18 st10 st16 st17">年 -74 ， 月 1</tspan>
		
		<tspan x="800" y="1330" class="st4 st10 st16 st17">建國里</tspan>
		<tspan x="1000" y="1330" class="st18 st10 st16 st17">年 -75 ， 月 -8</tspan>
		
		<tspan x="800" y="1400" class="st4 st10 st16 st17">龍翠里</tspan>
		<tspan x="1000" y="1400" class="st18 st10 st16 st17">年 -77 ， 月 -17</tspan>
		
		<tspan x="800" y="1470" class="st4 st10 st16 st17">純翠里</tspan>
		<tspan x="1000" y="1470" class="st18 st10 st16 st17">年 -81 ， 月 -24</tspan>
		
		<tspan x="800" y="0" class="st4 st10 st16 st17">明翠里</tspan>
		<tspan x="1000" y="0" class="st18 st10 st16 st17">年 -82 ， 月 -17</tspan>
		
		<tspan x="800" y="70" class="st4 st10 st16 st17">溪洲里</tspan>
		<tspan x="1000" y="70" class="st18 st10 st16 st17">年 -86 ， 月 -10</tspan>
		
		<tspan x="800" y="140" class="st4 st10 st16 st17">埤墘里</tspan>
		<tspan x="1000" y="140" class="st18 st10 st16 st17">年 -86 ， 月 -6</tspan>
		
		<tspan x="800" y="210" class="st4 st10 st16 st17">德翠里</tspan>
		<tspan x="1000" y="210" class="st18 st10 st16 st17">年 -88 ， 月 -28</tspan>
		
		<tspan x="800" y="280" class="st4 st10 st16 st17">溪福里</tspan>
		<tspan x="1000" y="280" class="st18 st10 st16 st17">年 -89 ， 月 1</tspan>
		
		<tspan x="800" y="350" class="st4 st10 st16 st17">國光里</tspan>
		<tspan x="1000" y="350" class="st18 st10 st16 st17">年 -90 ， 月 -2</tspan>
		
		<tspan x="800" y="420" class="st4 st10 st16 st17">大豐里</tspan>
		<tspan x="1000" y="420" class="st18 st10 st16 st17">年 -92 ， 月 -17</tspan>
		
		<tspan x="800" y="490" class="st4 st10 st16 st17">華東里</tspan>
		<tspan x="1000" y="490" class="st18 st10 st16 st17">年 -99 ， 月 -2</tspan>
		
		<tspan x="800" y="560" class="st4 st10 st16 st17">社後里</tspan>
		<tspan x="1000" y="560" class="st18 st10 st16 st17">年 -100 ， 月 -11</tspan>
		
		<tspan x="800" y="630" class="st4 st10 st16 st17">埔墘里</tspan>
		<tspan x="1000" y="630" class="st18 st10 st16 st17">年 -101 ， 月 -14</tspan>
		
		<tspan x="800" y="700" class="st4 st10 st16 st17">湳興里</tspan>
		<tspan x="1000" y="700" class="st18 st10 st16 st17">年 -122 ， 月 -5</tspan>
		
		<tspan x="800" y="770" class="st4 st10 st16 st17">華德里</tspan>
		<tspan x="1000" y="770" class="st18 st10 st16 st17">年 -125 ， 月 0</tspan>
		
		<tspan x="800" y="840" class="st4 st10 st16 st17">自強里</tspan>
		<tspan x="1000" y="840" class="st18 st10 st16 st17">年 -133 ， 月 -12</tspan>
		
		<tspan x="800" y="910" class="st4 st10 st16 st17">華江里</tspan>
		<tspan x="1000" y="910" class="st18 st10 st16 st17">年 -139 ， 月 -8</tspan>
		
		<tspan x="800" y="980" class="st4 st10 st16 st17">忠翠里</tspan>
		<tspan x="1000" y="980" class="st18 st10 st16 st17">年 -142 ， 月 -15</tspan>
		
		<tspan x="800" y="1050" class="st4 st10 st16 st17">深丘里</tspan>
		<tspan x="1000" y="1050" class="st18 st10 st16 st17">年 -190 ， 月 16</tspan>
			</text>
	<text transform="matrix(1 0 0 1 207 119.2712)" class="st18 st8 st20">新北市板橋區  |  2022年5月</text>
</svg>
