<?xml version="1.0" encoding="utf-8"?>
<!-- Generator: Adobe Illustrator 24.0.1, SVG Export Plug-In . SVG Version: 6.00 Build 0)  -->
<svg version="1.1" id="圖層_1" xmlns="http://www.w3.org/2000/svg" xmlns:xlink="http://www.w3.org/1999/xlink" x="0px" y="0px" viewBox="0 0 1840 2300" style="enable-background:new 0 0 1840 2300;" xml:space="preserve">
	<style type="text/css">
	.st0{fill:#0C354B;}
	.st1{fill:#E5A83D;}
	.st2{font-family:'NotoSansCJKtc-Bold-B5pc-H';}
	.st3{font-size:66px;}
	.st4{fill:#E3AA39;}
	.st5{font-family:'Arial-BoldMT';}
	.st6{font-size:291.7761px;}
	.st7{fill:none;stroke:#E3AA39;stroke-miterlimit:10;stroke-width:10;}
	.st8{font-family:'NotoSansCJKtc-Light-B5pc-H';}
	.st9{font-size:88px;}
	.st10{font-family:'NotoSansCJKtc-Medium-B5pc-H';}
	.st11{font-size:94px;}
	.st12{fill:none;stroke:#8AAFC1;stroke-miterlimit:10;}
	.st13{font-size:60.6493px;}
	.st14{font-size:106px;}
	.st15{fill:none;}
	.st16{font-size:44px;}
	.st17{letter-spacing:6;}
	.st18{fill:#FFFFFF;}
	.st19{letter-spacing:1;}
	.st20{font-size:68px;}
</style>
	<rect class="st0" width="1840" height="2300" />
	<text transform="matrix(1 0 0 1 94.5001 449.017)" class="st1 st2 st3">月變化</text>
	<g>
		<text transform="matrix(1 0 0 1 150 698.1412)" class="st4 st5 st6">-119</text>
	</g>
	<g>
		<rect x="800" y="385.6" class="st7" width="880" height="336.8" />
		<g>
			<text transform="matrix(1 0 0 1 830 519.593)" class="st4 st8 st9">月出生</text>
			<text transform="matrix(1 0 0 1 1330 521.5084)" class="st4 st10 st11">175</text>
			<text transform="matrix(1 0 0 1 830 649.4965)" class="st4 st8 st9">月死亡</text>
			<text transform="matrix(1 0 0 1 1330 651.7274)" class="st4 st10 st11">247</text>
		</g>
	</g>
	<line class="st12" x1="90" y1="745.5" x2="1643" y2="745.5" />
	<g>
		<g>
			<rect x="100" y="161.1" class="st4" width="500" height="190.4" />
			<g>
				<text transform="matrix(1 0 0 1 200 233.9079)" class="st0 st10 st13">年變化</text>
				<g>
					<text transform="matrix(1 0 0 1 110 330.2121)" class="st0 st5 st14">-3092</text>
				</g>
			</g>
		</g>
		<g>
			<rect x="640" y="161.1" class="st4" width="500" height="190.4" />
			<g>
				<text transform="matrix(1 0 0 1 740 233.908)" class="st0 st10 st13">年出生</text>
				<g>
					<text transform="matrix(1 0 0 1 650 330.2122)" class="st0 st5 st14">1057</text>
				</g>
			</g>
		</g>
		<g>
			<rect x="1180" y="161.1" class="st4" width="500" height="190.4" />
			<g>
				<text transform="matrix(1 0 0 1 1280 233.908)" class="st0 st10 st13">年死亡</text>
				<g>
					<text transform="matrix(1 0 0 1 1190 330.2122)" class="st0 st5 st14">1102</text>
				</g>
			</g>
		</g>
	</g>
	<rect x="90.6" y="772.1" class="st15" width="1141.8" height="314.8" />
	<text transform="matrix(1 0 0 1 90.5591 810.7965)">
		
		<tspan x="0" y="0" class="st4 st10 st16 st17">中原里</tspan>
		<tspan x="200" y="0" class="st18 st10 st16 st17">年 189 ， 月 30</tspan>
		
		<tspan x="0" y="70" class="st4 st10 st16 st17">昌平里</tspan>
		<tspan x="200" y="70" class="st18 st10 st16 st17">年 171 ， 月 32</tspan>
		
		<tspan x="0" y="140" class="st4 st10 st16 st17">西盛里</tspan>
		<tspan x="200" y="140" class="st18 st10 st16 st17">年 75 ， 月 153</tspan>
		
		<tspan x="0" y="210" class="st4 st10 st16 st17">中平里</tspan>
		<tspan x="200" y="210" class="st18 st10 st16 st17">年 74 ， 月 27</tspan>
		
		<tspan x="0" y="280" class="st4 st10 st16 st17">中隆里</tspan>
		<tspan x="200" y="280" class="st18 st10 st16 st17">年 54 ， 月 14</tspan>
		
		<tspan x="0" y="350" class="st4 st10 st16 st17">榮和里</tspan>
		<tspan x="200" y="350" class="st18 st10 st16 st17">年 14 ， 月 11</tspan>
		
		<tspan x="0" y="420" class="st4 st10 st16 st17">萬安里</tspan>
		<tspan x="200" y="420" class="st18 st10 st16 st17">年 6 ， 月 6</tspan>
		
		<tspan x="0" y="490" class="st4 st10 st16 st17">中美里</tspan>
		<tspan x="200" y="490" class="st18 st10 st16 st17">年 5 ， 月 11</tspan>
		
		<tspan x="0" y="560" class="st4 st10 st16 st17">立人里</tspan>
		<tspan x="200" y="560" class="st18 st10 st16 st17">年 5 ， 月 7</tspan>
		
		<tspan x="0" y="630" class="st4 st10 st16 st17">立廷里</tspan>
		<tspan x="200" y="630" class="st18 st10 st16 st17">年 4 ， 月 12</tspan>
		
		<tspan x="0" y="700" class="st4 st10 st16 st17">文德里</tspan>
		<tspan x="200" y="700" class="st18 st10 st16 st17">年 0 ， 月 1</tspan>
		
		<tspan x="0" y="770" class="st4 st10 st16 st17">文衡里</tspan>
		<tspan x="200" y="770" class="st18 st10 st16 st17">年 -3 ， 月 1</tspan>
		
		<tspan x="0" y="840" class="st4 st10 st16 st17">中誠里</tspan>
		<tspan x="200" y="840" class="st18 st10 st16 st17">年 -5 ， 月 4</tspan>
		
		<tspan x="0" y="910" class="st4 st10 st16 st17">頭前里</tspan>
		<tspan x="200" y="910" class="st18 st10 st16 st17">年 -5 ， 月 31</tspan>
		
		<tspan x="0" y="980" class="st4 st10 st16 st17">富國里</tspan>
		<tspan x="200" y="980" class="st18 st10 st16 st17">年 -9 ， 月 -3</tspan>
		
		<tspan x="0" y="1050" class="st4 st10 st16 st17">光榮里</tspan>
		<tspan x="200" y="1050" class="st18 st10 st16 st17">年 -13 ， 月 -1</tspan>
		
		<tspan x="0" y="1120" class="st4 st10 st16 st17">民安里</tspan>
		<tspan x="200" y="1120" class="st18 st10 st16 st17">年 -19 ， 月 4</tspan>
		
		<tspan x="0" y="1190" class="st4 st10 st16 st17">文聖里</tspan>
		<tspan x="200" y="1190" class="st18 st10 st16 st17">年 -20 ， 月 -8</tspan>
		
		<tspan x="0" y="1260" class="st4 st10 st16 st17">泰豐里</tspan>
		<tspan x="200" y="1260" class="st18 st10 st16 st17">年 -23 ， 月 3</tspan>
		
		<tspan x="0" y="1330" class="st4 st10 st16 st17">中華里</tspan>
		<tspan x="200" y="1330" class="st18 st10 st16 st17">年 -24 ， 月 5</tspan>
		
		<tspan x="0" y="1400" class="st4 st10 st16 st17">和平里</tspan>
		<tspan x="200" y="1400" class="st18 st10 st16 st17">年 -25 ， 月 -8</tspan>
		
		<tspan x="0" y="1470" class="st4 st10 st16 st17">民本里</tspan>
		<tspan x="200" y="1470" class="st18 st10 st16 st17">年 -27 ， 月 -14</tspan>
		
		<tspan x="800" y="0" class="st4 st10 st16 st17">建福里</tspan>
		<tspan x="1000" y="0" class="st18 st10 st16 st17">年 -28 ， 月 2</tspan>
		
		<tspan x="800" y="70" class="st4 st10 st16 st17">仁愛里</tspan>
		<tspan x="1000" y="70" class="st18 st10 st16 st17">年 -28 ， 月 2</tspan>
		
		<tspan x="800" y="140" class="st4 st10 st16 st17">福基里</tspan>
		<tspan x="1000" y="140" class="st18 st10 st16 st17">年 -30 ， 月 -5</tspan>
		
		<tspan x="800" y="210" class="st4 st10 st16 st17">文明里</tspan>
		<tspan x="1000" y="210" class="st18 st10 st16 st17">年 -32 ， 月 3</tspan>
		
		<tspan x="800" y="280" class="st4 st10 st16 st17">恆安里</tspan>
		<tspan x="1000" y="280" class="st18 st10 st16 st17">年 -33 ， 月 -4</tspan>
		
		<tspan x="800" y="350" class="st4 st10 st16 st17">八德里</tspan>
		<tspan x="1000" y="350" class="st18 st10 st16 st17">年 -33 ， 月 4</tspan>
		
		<tspan x="800" y="420" class="st4 st10 st16 st17">信義里</tspan>
		<tspan x="1000" y="420" class="st18 st10 st16 st17">年 -34 ， 月 12</tspan>
		
		<tspan x="800" y="490" class="st4 st10 st16 st17">昌信里</tspan>
		<tspan x="1000" y="490" class="st18 st10 st16 st17">年 -35 ， 月 2</tspan>
		
		<tspan x="800" y="560" class="st4 st10 st16 st17">光和里</tspan>
		<tspan x="1000" y="560" class="st18 st10 st16 st17">年 -38 ， 月 5</tspan>
		
		<tspan x="800" y="630" class="st4 st10 st16 st17">龍福里</tspan>
		<tspan x="1000" y="630" class="st18 st10 st16 st17">年 -38 ， 月 -11</tspan>
		
		<tspan x="800" y="700" class="st4 st10 st16 st17">立泰里</tspan>
		<tspan x="1000" y="700" class="st18 st10 st16 st17">年 -39 ， 月 1</tspan>
		
		<tspan x="800" y="770" class="st4 st10 st16 st17">中和里</tspan>
		<tspan x="1000" y="770" class="st18 st10 st16 st17">年 -39 ， 月 -13</tspan>
		
		<tspan x="800" y="840" class="st4 st10 st16 st17">立志里</tspan>
		<tspan x="1000" y="840" class="st18 st10 st16 st17">年 -39 ， 月 -5</tspan>
		
		<tspan x="800" y="910" class="st4 st10 st16 st17">化成里</tspan>
		<tspan x="1000" y="910" class="st18 st10 st16 st17">年 -40 ， 月 9</tspan>
		
		<tspan x="800" y="980" class="st4 st10 st16 st17">光正里</tspan>
		<tspan x="1000" y="980" class="st18 st10 st16 st17">年 -40 ， 月 -7</tspan>
		
		<tspan x="800" y="1050" class="st4 st10 st16 st17">國泰里</tspan>
		<tspan x="1000" y="1050" class="st18 st10 st16 st17">年 -40 ， 月 -4</tspan>
		
		<tspan x="800" y="1120" class="st4 st10 st16 st17">幸福里</tspan>
		<tspan x="1000" y="1120" class="st18 st10 st16 st17">年 -40 ， 月 12</tspan>
		
		<tspan x="800" y="1190" class="st4 st10 st16 st17">仁義里</tspan>
		<tspan x="1000" y="1190" class="st18 st10 st16 st17">年 -41 ， 月 -7</tspan>
		
		<tspan x="800" y="1260" class="st4 st10 st16 st17">營盤里</tspan>
		<tspan x="1000" y="1260" class="st18 st10 st16 st17">年 -41 ， 月 -2</tspan>
		
		<tspan x="800" y="1330" class="st4 st10 st16 st17">福興里</tspan>
		<tspan x="1000" y="1330" class="st18 st10 st16 st17">年 -42 ， 月 -5</tspan>
		
		<tspan x="800" y="1400" class="st4 st10 st16 st17">丹鳳里</tspan>
		<tspan x="1000" y="1400" class="st18 st10 st16 st17">年 -42 ， 月 4</tspan>
		
		<tspan x="800" y="1470" class="st4 st10 st16 st17">建安里</tspan>
		<tspan x="1000" y="1470" class="st18 st10 st16 st17">年 -43 ， 月 -26</tspan>
		
		<tspan x="800" y="0" class="st4 st10 st16 st17">立言里</tspan>
		<tspan x="1000" y="0" class="st18 st10 st16 st17">年 -43 ， 月 -14</tspan>
		
		<tspan x="800" y="70" class="st4 st10 st16 st17">昌隆里</tspan>
		<tspan x="1000" y="70" class="st18 st10 st16 st17">年 -45 ， 月 -3</tspan>
		
		<tspan x="800" y="140" class="st4 st10 st16 st17">富民里</tspan>
		<tspan x="1000" y="140" class="st18 st10 st16 st17">年 -47 ， 月 -4</tspan>
		
		<tspan x="800" y="210" class="st4 st10 st16 st17">民有里</tspan>
		<tspan x="1000" y="210" class="st18 st10 st16 st17">年 -48 ， 月 -8</tspan>
		
		<tspan x="800" y="280" class="st4 st10 st16 st17">雙鳳里</tspan>
		<tspan x="1000" y="280" class="st18 st10 st16 st17">年 -48 ， 月 -3</tspan>
		
		<tspan x="800" y="350" class="st4 st10 st16 st17">龍鳳里</tspan>
		<tspan x="1000" y="350" class="st18 st10 st16 st17">年 -48 ， 月 -8</tspan>
		
		<tspan x="800" y="420" class="st4 st10 st16 st17">光華里</tspan>
		<tspan x="1000" y="420" class="st18 st10 st16 st17">年 -49 ， 月 -18</tspan>
		
		<tspan x="800" y="490" class="st4 st10 st16 st17">自信里</tspan>
		<tspan x="1000" y="490" class="st18 st10 st16 st17">年 -50 ， 月 -13</tspan>
		
		<tspan x="800" y="560" class="st4 st10 st16 st17">中全里</tspan>
		<tspan x="1000" y="560" class="st18 st10 st16 st17">年 -50 ， 月 3</tspan>
		
		<tspan x="800" y="630" class="st4 st10 st16 st17">全泰里</tspan>
		<tspan x="1000" y="630" class="st18 st10 st16 st17">年 -52 ， 月 -12</tspan>
		
		<tspan x="800" y="700" class="st4 st10 st16 st17">自強里</tspan>
		<tspan x="1000" y="700" class="st18 st10 st16 st17">年 -54 ， 月 -6</tspan>
		
		<tspan x="800" y="770" class="st4 st10 st16 st17">祥鳳里</tspan>
		<tspan x="1000" y="770" class="st18 st10 st16 st17">年 -55 ， 月 -9</tspan>
		
		<tspan x="800" y="840" class="st4 st10 st16 st17">後港里</tspan>
		<tspan x="1000" y="840" class="st18 st10 st16 st17">年 -55 ， 月 -6</tspan>
		
		<tspan x="800" y="910" class="st4 st10 st16 st17">思源里</tspan>
		<tspan x="1000" y="910" class="st18 st10 st16 st17">年 -55 ， 月 7</tspan>
		
		<tspan x="800" y="980" class="st4 st10 st16 st17">立功里</tspan>
		<tspan x="1000" y="980" class="st18 st10 st16 st17">年 -56 ， 月 -5</tspan>
		
		<tspan x="800" y="1050" class="st4 st10 st16 st17">民全里</tspan>
		<tspan x="1000" y="1050" class="st18 st10 st16 st17">年 -58 ， 月 -5</tspan>
		
		<tspan x="800" y="1120" class="st4 st10 st16 st17">海山里</tspan>
		<tspan x="1000" y="1120" class="st18 st10 st16 st17">年 -59 ， 月 -11</tspan>
		
		<tspan x="800" y="1190" class="st4 st10 st16 st17">立德里</tspan>
		<tspan x="1000" y="1190" class="st18 st10 st16 st17">年 -59 ， 月 5</tspan>
		
		<tspan x="800" y="1260" class="st4 st10 st16 st17">中泰里</tspan>
		<tspan x="1000" y="1260" class="st18 st10 st16 st17">年 -60 ， 月 -21</tspan>
		
		<tspan x="800" y="1330" class="st4 st10 st16 st17">四維里</tspan>
		<tspan x="1000" y="1330" class="st18 st10 st16 st17">年 -60 ， 月 -13</tspan>
		
		<tspan x="800" y="1400" class="st4 st10 st16 st17">自立里</tspan>
		<tspan x="1000" y="1400" class="st18 st10 st16 st17">年 -61 ， 月 3</tspan>
		
		<tspan x="800" y="1470" class="st4 st10 st16 st17">龍安里</tspan>
		<tspan x="1000" y="1470" class="st18 st10 st16 st17">年 -63 ， 月 -6</tspan>
		
		<tspan x="800" y="0" class="st4 st10 st16 st17">福營里</tspan>
		<tspan x="1000" y="0" class="st18 st10 st16 st17">年 -64 ， 月 -6</tspan>
		
		<tspan x="800" y="70" class="st4 st10 st16 st17">思賢里</tspan>
		<tspan x="1000" y="70" class="st18 st10 st16 st17">年 -66 ， 月 6</tspan>
		
		<tspan x="800" y="140" class="st4 st10 st16 st17">成德里</tspan>
		<tspan x="1000" y="140" class="st18 st10 st16 st17">年 -70 ， 月 -21</tspan>
		
		<tspan x="800" y="210" class="st4 st10 st16 st17">合鳳里</tspan>
		<tspan x="1000" y="210" class="st18 st10 st16 st17">年 -71 ， 月 -8</tspan>
		
		<tspan x="800" y="280" class="st4 st10 st16 st17">後德里</tspan>
		<tspan x="1000" y="280" class="st18 st10 st16 st17">年 -72 ， 月 -16</tspan>
		
		<tspan x="800" y="350" class="st4 st10 st16 st17">立基里</tspan>
		<tspan x="1000" y="350" class="st18 st10 st16 st17">年 -73 ， 月 -4</tspan>
		
		<tspan x="800" y="420" class="st4 st10 st16 st17">昌明里</tspan>
		<tspan x="1000" y="420" class="st18 st10 st16 st17">年 -76 ， 月 -34</tspan>
		
		<tspan x="800" y="490" class="st4 st10 st16 st17">中宏里</tspan>
		<tspan x="1000" y="490" class="st18 st10 st16 st17">年 -76 ， 月 -17</tspan>
		
		<tspan x="800" y="560" class="st4 st10 st16 st17">中港里</tspan>
		<tspan x="1000" y="560" class="st18 st10 st16 st17">年 -80 ， 月 -27</tspan>
		
		<tspan x="800" y="630" class="st4 st10 st16 st17">興漢里</tspan>
		<tspan x="1000" y="630" class="st18 st10 st16 st17">年 -83 ， 月 -12</tspan>
		
		<tspan x="800" y="700" class="st4 st10 st16 st17">全安里</tspan>
		<tspan x="1000" y="700" class="st18 st10 st16 st17">年 -86 ， 月 -22</tspan>
		
		<tspan x="800" y="770" class="st4 st10 st16 st17">豐年里</tspan>
		<tspan x="1000" y="770" class="st18 st10 st16 st17">年 -89 ， 月 -2</tspan>
		
		<tspan x="800" y="840" class="st4 st10 st16 st17">忠孝里</tspan>
		<tspan x="1000" y="840" class="st18 st10 st16 st17">年 -94 ， 月 -13</tspan>
		
		<tspan x="800" y="910" class="st4 st10 st16 st17">光明里</tspan>
		<tspan x="1000" y="910" class="st18 st10 st16 st17">年 -96 ， 月 -8</tspan>
		
		<tspan x="800" y="980" class="st4 st10 st16 st17">中信里</tspan>
		<tspan x="1000" y="980" class="st18 st10 st16 st17">年 -101 ， 月 -32</tspan>
		
		<tspan x="800" y="1050" class="st4 st10 st16 st17">瓊林里</tspan>
		<tspan x="1000" y="1050" class="st18 st10 st16 st17">年 -102 ， 月 -14</tspan>
		
		<tspan x="800" y="1120" class="st4 st10 st16 st17">南港里</tspan>
		<tspan x="1000" y="1120" class="st18 st10 st16 st17">年 -111 ， 月 1</tspan>
		
		<tspan x="800" y="1190" class="st4 st10 st16 st17">裕民里</tspan>
		<tspan x="1000" y="1190" class="st18 st10 st16 st17">年 -116 ， 月 -28</tspan>
			</text>
	<text transform="matrix(1 0 0 1 207 119.2712)" class="st18 st8 st20">新北市新莊區  |  2022年5月</text>
</svg>
