<?xml version="1.0" encoding="utf-8"?>
<!-- Generator: Adobe Illustrator 24.0.1, SVG Export Plug-In . SVG Version: 6.00 Build 0)  -->
<svg version="1.1" id="圖層_1" xmlns="http://www.w3.org/2000/svg" xmlns:xlink="http://www.w3.org/1999/xlink" x="0px" y="0px" viewBox="0 0 1840 2300" style="enable-background:new 0 0 1840 2300;" xml:space="preserve">
	<style type="text/css">
	.st0{fill:#0C354B;}
	.st1{fill:#E5A83D;}
	.st2{font-family:'NotoSansCJKtc-Bold-B5pc-H';}
	.st3{font-size:66px;}
	.st4{fill:#E3AA39;}
	.st5{font-family:'Arial-BoldMT';}
	.st6{font-size:291.7761px;}
	.st7{fill:none;stroke:#E3AA39;stroke-miterlimit:10;stroke-width:10;}
	.st8{font-family:'NotoSansCJKtc-Light-B5pc-H';}
	.st9{font-size:88px;}
	.st10{font-family:'NotoSansCJKtc-Medium-B5pc-H';}
	.st11{font-size:94px;}
	.st12{fill:none;stroke:#8AAFC1;stroke-miterlimit:10;}
	.st13{font-size:60.6493px;}
	.st14{font-size:106px;}
	.st15{fill:none;}
	.st16{font-size:44px;}
	.st17{letter-spacing:6;}
	.st18{fill:#FFFFFF;}
	.st19{letter-spacing:1;}
	.st20{font-size:68px;}
</style>
	<rect class="st0" width="1840" height="2300" />
	<text transform="matrix(1 0 0 1 94.5001 449.017)" class="st1 st2 st3">月變化</text>
	<g>
		<text transform="matrix(1 0 0 1 150 698.1412)" class="st4 st5 st6">-384</text>
	</g>
	<g>
		<rect x="800" y="385.6" class="st7" width="880" height="336.8" />
		<g>
			<text transform="matrix(1 0 0 1 830 519.593)" class="st4 st8 st9">月出生</text>
			<text transform="matrix(1 0 0 1 1330 521.5084)" class="st4 st10 st11">41</text>
			<text transform="matrix(1 0 0 1 830 649.4965)" class="st4 st8 st9">月死亡</text>
			<text transform="matrix(1 0 0 1 1330 651.7274)" class="st4 st10 st11">115</text>
		</g>
	</g>
	<line class="st12" x1="90" y1="745.5" x2="1643" y2="745.5" />
	<g>
		<g>
			<rect x="100" y="161.1" class="st4" width="500" height="190.4" />
			<g>
				<text transform="matrix(1 0 0 1 200 233.9079)" class="st0 st10 st13">年變化</text>
				<g>
					<text transform="matrix(1 0 0 1 110 330.2121)" class="st0 st5 st14">-2080</text>
				</g>
			</g>
		</g>
		<g>
			<rect x="640" y="161.1" class="st4" width="500" height="190.4" />
			<g>
				<text transform="matrix(1 0 0 1 740 233.908)" class="st0 st10 st13">年出生</text>
				<g>
					<text transform="matrix(1 0 0 1 650 330.2122)" class="st0 st5 st14">273</text>
				</g>
			</g>
		</g>
		<g>
			<rect x="1180" y="161.1" class="st4" width="500" height="190.4" />
			<g>
				<text transform="matrix(1 0 0 1 1280 233.908)" class="st0 st10 st13">年死亡</text>
				<g>
					<text transform="matrix(1 0 0 1 1190 330.2122)" class="st0 st5 st14">510</text>
				</g>
			</g>
		</g>
	</g>
	<rect x="90.6" y="772.1" class="st15" width="1141.8" height="314.8" />
	<text transform="matrix(1 0 0 1 90.5591 810.7965)">
		
		<tspan x="0" y="0" class="st4 st10 st16 st17">南聖里</tspan>
		<tspan x="200" y="0" class="st18 st10 st16 st17">年 20 ， 月 -15</tspan>
		
		<tspan x="0" y="70" class="st4 st10 st16 st17">東智里</tspan>
		<tspan x="200" y="70" class="st18 st10 st16 st17">年 11 ， 月 -6</tspan>
		
		<tspan x="0" y="140" class="st4 st10 st16 st17">大學里</tspan>
		<tspan x="200" y="140" class="st18 st10 st16 st17">年 5 ， 月 2</tspan>
		
		<tspan x="0" y="210" class="st4 st10 st16 st17">裕聖里</tspan>
		<tspan x="200" y="210" class="st18 st10 st16 st17">年 5 ， 月 13</tspan>
		
		<tspan x="0" y="280" class="st4 st10 st16 st17">德高里</tspan>
		<tspan x="200" y="280" class="st18 st10 st16 st17">年 -6 ， 月 -6</tspan>
		
		<tspan x="0" y="350" class="st4 st10 st16 st17">新東里</tspan>
		<tspan x="200" y="350" class="st18 st10 st16 st17">年 -17 ， 月 -5</tspan>
		
		<tspan x="0" y="420" class="st4 st10 st16 st17">崇明里</tspan>
		<tspan x="200" y="420" class="st18 st10 st16 st17">年 -17 ， 月 -7</tspan>
		
		<tspan x="0" y="490" class="st4 st10 st16 st17">富裕里</tspan>
		<tspan x="200" y="490" class="st18 st10 st16 st17">年 -17 ， 月 -6</tspan>
		
		<tspan x="0" y="560" class="st4 st10 st16 st17">自強里</tspan>
		<tspan x="200" y="560" class="st18 st10 st16 st17">年 -23 ， 月 -18</tspan>
		
		<tspan x="0" y="630" class="st4 st10 st16 st17">仁和里</tspan>
		<tspan x="200" y="630" class="st18 st10 st16 st17">年 -27 ， 月 1</tspan>
		
		<tspan x="0" y="700" class="st4 st10 st16 st17">大同里</tspan>
		<tspan x="200" y="700" class="st18 st10 st16 st17">年 -28 ， 月 -6</tspan>
		
		<tspan x="0" y="770" class="st4 st10 st16 st17">大德里</tspan>
		<tspan x="200" y="770" class="st18 st10 st16 st17">年 -29 ， 月 -17</tspan>
		
		<tspan x="0" y="840" class="st4 st10 st16 st17">和平里</tspan>
		<tspan x="200" y="840" class="st18 st10 st16 st17">年 -34 ， 月 -2</tspan>
		
		<tspan x="0" y="910" class="st4 st10 st16 st17">路東里</tspan>
		<tspan x="200" y="910" class="st18 st10 st16 st17">年 -34 ， 月 -6</tspan>
		
		<tspan x="0" y="980" class="st4 st10 st16 st17">成大里</tspan>
		<tspan x="200" y="980" class="st18 st10 st16 st17">年 -35 ， 月 -5</tspan>
		
		<tspan x="0" y="1050" class="st4 st10 st16 st17">小東里</tspan>
		<tspan x="200" y="1050" class="st18 st10 st16 st17">年 -35 ， 月 -11</tspan>
		
		<tspan x="0" y="1120" class="st4 st10 st16 st17">虎尾里</tspan>
		<tspan x="200" y="1120" class="st18 st10 st16 st17">年 -38 ， 月 -9</tspan>
		
		<tspan x="0" y="1190" class="st4 st10 st16 st17">東安里</tspan>
		<tspan x="200" y="1190" class="st18 st10 st16 st17">年 -40 ， 月 -14</tspan>
		
		<tspan x="0" y="1260" class="st4 st10 st16 st17">富強里</tspan>
		<tspan x="200" y="1260" class="st18 st10 st16 st17">年 -40 ， 月 -20</tspan>
		
		<tspan x="0" y="1330" class="st4 st10 st16 st17">衛國里</tspan>
		<tspan x="200" y="1330" class="st18 st10 st16 st17">年 -41 ， 月 -2</tspan>
		
		<tspan x="0" y="1400" class="st4 st10 st16 st17">大智里</tspan>
		<tspan x="200" y="1400" class="st18 st10 st16 st17">年 -43 ， 月 -5</tspan>
		
		<tspan x="0" y="1470" class="st4 st10 st16 st17">東聖里</tspan>
		<tspan x="200" y="1470" class="st18 st10 st16 st17">年 -43 ， 月 -15</tspan>
		
		<tspan x="800" y="0" class="st4 st10 st16 st17">崇學里</tspan>
		<tspan x="1000" y="0" class="st18 st10 st16 st17">年 -46 ， 月 -5</tspan>
		
		<tspan x="800" y="70" class="st4 st10 st16 st17">莊敬里</tspan>
		<tspan x="1000" y="70" class="st18 st10 st16 st17">年 -50 ， 月 6</tspan>
		
		<tspan x="800" y="140" class="st4 st10 st16 st17">東光里</tspan>
		<tspan x="1000" y="140" class="st18 st10 st16 st17">年 -53 ， 月 -35</tspan>
		
		<tspan x="800" y="210" class="st4 st10 st16 st17">復興里</tspan>
		<tspan x="1000" y="210" class="st18 st10 st16 st17">年 -55 ， 月 -11</tspan>
		
		<tspan x="800" y="280" class="st4 st10 st16 st17">大福里</tspan>
		<tspan x="1000" y="280" class="st18 st10 st16 st17">年 -56 ， 月 -5</tspan>
		
		<tspan x="800" y="350" class="st4 st10 st16 st17">崇善里</tspan>
		<tspan x="1000" y="350" class="st18 st10 st16 st17">年 -58 ， 月 0</tspan>
		
		<tspan x="800" y="420" class="st4 st10 st16 st17">東門里</tspan>
		<tspan x="1000" y="420" class="st18 st10 st16 st17">年 -59 ， 月 -8</tspan>
		
		<tspan x="800" y="490" class="st4 st10 st16 st17">崇誨里</tspan>
		<tspan x="1000" y="490" class="st18 st10 st16 st17">年 -61 ， 月 -9</tspan>
		
		<tspan x="800" y="560" class="st4 st10 st16 st17">崇成里</tspan>
		<tspan x="1000" y="560" class="st18 st10 st16 st17">年 -61 ， 月 -13</tspan>
		
		<tspan x="800" y="630" class="st4 st10 st16 st17">圍下里</tspan>
		<tspan x="1000" y="630" class="st18 st10 st16 st17">年 -62 ， 月 -20</tspan>
		
		<tspan x="800" y="700" class="st4 st10 st16 st17">裕農里</tspan>
		<tspan x="1000" y="700" class="st18 st10 st16 st17">年 -63 ， 月 -10</tspan>
		
		<tspan x="800" y="770" class="st4 st10 st16 st17">後甲里</tspan>
		<tspan x="1000" y="770" class="st18 st10 st16 st17">年 -64 ， 月 -4</tspan>
		
		<tspan x="800" y="840" class="st4 st10 st16 st17">關聖里</tspan>
		<tspan x="1000" y="840" class="st18 st10 st16 st17">年 -66 ， 月 -5</tspan>
		
		<tspan x="800" y="910" class="st4 st10 st16 st17">東明里</tspan>
		<tspan x="1000" y="910" class="st18 st10 st16 st17">年 -67 ， 月 -8</tspan>
		
		<tspan x="800" y="980" class="st4 st10 st16 st17">泉南里</tspan>
		<tspan x="1000" y="980" class="st18 st10 st16 st17">年 -67 ， 月 -10</tspan>
		
		<tspan x="800" y="1050" class="st4 st10 st16 st17">忠孝里</tspan>
		<tspan x="1000" y="1050" class="st18 st10 st16 st17">年 -72 ， 月 -10</tspan>
		
		<tspan x="800" y="1120" class="st4 st10 st16 st17">崇德里</tspan>
		<tspan x="1000" y="1120" class="st18 st10 st16 st17">年 -73 ， 月 -11</tspan>
		
		<tspan x="800" y="1190" class="st4 st10 st16 st17">中西里</tspan>
		<tspan x="1000" y="1190" class="st18 st10 st16 st17">年 -73 ， 月 -4</tspan>
		
		<tspan x="800" y="1260" class="st4 st10 st16 st17">文聖里</tspan>
		<tspan x="1000" y="1260" class="st18 st10 st16 st17">年 -77 ， 月 1</tspan>
		
		<tspan x="800" y="1330" class="st4 st10 st16 st17">崇文里</tspan>
		<tspan x="1000" y="1330" class="st18 st10 st16 st17">年 -83 ， 月 -23</tspan>
		
		<tspan x="800" y="1400" class="st4 st10 st16 st17">龍山里</tspan>
		<tspan x="1000" y="1400" class="st18 st10 st16 st17">年 -88 ， 月 -9</tspan>
		
		<tspan x="800" y="1470" class="st4 st10 st16 st17">崇信里</tspan>
		<tspan x="1000" y="1470" class="st18 st10 st16 st17">年 -108 ， 月 -21</tspan>
		
		<tspan x="800" y="0" class="st4 st10 st16 st17">德光里</tspan>
		<tspan x="1000" y="0" class="st18 st10 st16 st17">年 -112 ， 月 -11</tspan>
			</text>
	<text transform="matrix(1 0 0 1 207 119.2712)" class="st18 st8 st20">臺南市東區  |  2022年5月</text>
</svg>
