<?xml version="1.0" encoding="utf-8"?>
<!-- Generator: Adobe Illustrator 24.0.1, SVG Export Plug-In . SVG Version: 6.00 Build 0)  -->
<svg version="1.1" id="圖層_1" xmlns="http://www.w3.org/2000/svg" xmlns:xlink="http://www.w3.org/1999/xlink" x="0px" y="0px" viewBox="0 0 1840 2300" style="enable-background:new 0 0 1840 2300;" xml:space="preserve">
	<style type="text/css">
	.st0{fill:#0C354B;}
	.st1{fill:#E5A83D;}
	.st2{font-family:'NotoSansCJKtc-Bold-B5pc-H';}
	.st3{font-size:66px;}
	.st4{fill:#E3AA39;}
	.st5{font-family:'Arial-BoldMT';}
	.st6{font-size:291.7761px;}
	.st7{fill:none;stroke:#E3AA39;stroke-miterlimit:10;stroke-width:10;}
	.st8{font-family:'NotoSansCJKtc-Light-B5pc-H';}
	.st9{font-size:88px;}
	.st10{font-family:'NotoSansCJKtc-Medium-B5pc-H';}
	.st11{font-size:94px;}
	.st12{fill:none;stroke:#8AAFC1;stroke-miterlimit:10;}
	.st13{font-size:60.6493px;}
	.st14{font-size:106px;}
	.st15{fill:none;}
	.st16{font-size:44px;}
	.st17{letter-spacing:6;}
	.st18{fill:#FFFFFF;}
	.st19{letter-spacing:1;}
	.st20{font-size:68px;}
</style>
	<rect class="st0" width="1840" height="2300" />
	<text transform="matrix(1 0 0 1 94.5001 449.017)" class="st1 st2 st3">月變化</text>
	<g>
		<text transform="matrix(1 0 0 1 150 698.1412)" class="st4 st5 st6">-143</text>
	</g>
	<g>
		<rect x="800" y="385.6" class="st7" width="880" height="336.8" />
		<g>
			<text transform="matrix(1 0 0 1 830 519.593)" class="st4 st8 st9">月出生</text>
			<text transform="matrix(1 0 0 1 1330 521.5084)" class="st4 st10 st11">32</text>
			<text transform="matrix(1 0 0 1 830 649.4965)" class="st4 st8 st9">月死亡</text>
			<text transform="matrix(1 0 0 1 1330 651.7274)" class="st4 st10 st11">90</text>
		</g>
	</g>
	<line class="st12" x1="90" y1="745.5" x2="1643" y2="745.5" />
	<g>
		<g>
			<rect x="100" y="161.1" class="st4" width="500" height="190.4" />
			<g>
				<text transform="matrix(1 0 0 1 200 233.9079)" class="st0 st10 st13">年變化</text>
				<g>
					<text transform="matrix(1 0 0 1 110 330.2121)" class="st0 st5 st14">-891</text>
				</g>
			</g>
		</g>
		<g>
			<rect x="640" y="161.1" class="st4" width="500" height="190.4" />
			<g>
				<text transform="matrix(1 0 0 1 740 233.908)" class="st0 st10 st13">年出生</text>
				<g>
					<text transform="matrix(1 0 0 1 650 330.2122)" class="st0 st5 st14">262</text>
				</g>
			</g>
		</g>
		<g>
			<rect x="1180" y="161.1" class="st4" width="500" height="190.4" />
			<g>
				<text transform="matrix(1 0 0 1 1280 233.908)" class="st0 st10 st13">年死亡</text>
				<g>
					<text transform="matrix(1 0 0 1 1190 330.2122)" class="st0 st5 st14">487</text>
				</g>
			</g>
		</g>
	</g>
	<rect x="90.6" y="772.1" class="st15" width="1141.8" height="314.8" />
	<text transform="matrix(1 0 0 1 90.5591 810.7965)">
		
		<tspan x="0" y="0" class="st4 st10 st16 st17">湖內里</tspan>
		<tspan x="200" y="0" class="st18 st10 st16 st17">年 158 ， 月 59</tspan>
		
		<tspan x="0" y="70" class="st4 st10 st16 st17">下埤里</tspan>
		<tspan x="200" y="70" class="st18 st10 st16 st17">年 37 ， 月 -10</tspan>
		
		<tspan x="0" y="140" class="st4 st10 st16 st17">保安里</tspan>
		<tspan x="200" y="140" class="st18 st10 st16 st17">年 8 ， 月 13</tspan>
		
		<tspan x="0" y="210" class="st4 st10 st16 st17">新厝里</tspan>
		<tspan x="200" y="210" class="st18 st10 st16 st17">年 8 ， 月 -4</tspan>
		
		<tspan x="0" y="280" class="st4 st10 st16 st17">竹圍里</tspan>
		<tspan x="200" y="280" class="st18 st10 st16 st17">年 5 ， 月 2</tspan>
		
		<tspan x="0" y="350" class="st4 st10 st16 st17">大溪里</tspan>
		<tspan x="200" y="350" class="st18 st10 st16 st17">年 1 ， 月 -2</tspan>
		
		<tspan x="0" y="420" class="st4 st10 st16 st17">光路里</tspan>
		<tspan x="200" y="420" class="st18 st10 st16 st17">年 1 ， 月 -7</tspan>
		
		<tspan x="0" y="490" class="st4 st10 st16 st17">湖邊里</tspan>
		<tspan x="200" y="490" class="st18 st10 st16 st17">年 1 ， 月 -8</tspan>
		
		<tspan x="0" y="560" class="st4 st10 st16 st17">北新里</tspan>
		<tspan x="200" y="560" class="st18 st10 st16 st17">年 -1 ， 月 2</tspan>
		
		<tspan x="0" y="630" class="st4 st10 st16 st17">致遠里</tspan>
		<tspan x="200" y="630" class="st18 st10 st16 st17">年 -2 ， 月 -4</tspan>
		
		<tspan x="0" y="700" class="st4 st10 st16 st17">重興里</tspan>
		<tspan x="200" y="700" class="st18 st10 st16 st17">年 -4 ， 月 9</tspan>
		
		<tspan x="0" y="770" class="st4 st10 st16 st17">垂楊里</tspan>
		<tspan x="200" y="770" class="st18 st10 st16 st17">年 -5 ， 月 3</tspan>
		
		<tspan x="0" y="840" class="st4 st10 st16 st17">翠岱里</tspan>
		<tspan x="200" y="840" class="st18 st10 st16 st17">年 -5 ， 月 6</tspan>
		
		<tspan x="0" y="910" class="st4 st10 st16 st17">竹村里</tspan>
		<tspan x="200" y="910" class="st18 st10 st16 st17">年 -5 ， 月 -6</tspan>
		
		<tspan x="0" y="980" class="st4 st10 st16 st17">慶安里</tspan>
		<tspan x="200" y="980" class="st18 st10 st16 st17">年 -7 ， 月 0</tspan>
		
		<tspan x="0" y="1050" class="st4 st10 st16 st17">香湖里</tspan>
		<tspan x="200" y="1050" class="st18 st10 st16 st17">年 -9 ， 月 3</tspan>
		
		<tspan x="0" y="1120" class="st4 st10 st16 st17">自強里</tspan>
		<tspan x="200" y="1120" class="st18 st10 st16 st17">年 -11 ， 月 1</tspan>
		
		<tspan x="0" y="1190" class="st4 st10 st16 st17">新西里</tspan>
		<tspan x="200" y="1190" class="st18 st10 st16 st17">年 -13 ， 月 -4</tspan>
		
		<tspan x="0" y="1260" class="st4 st10 st16 st17">育英里</tspan>
		<tspan x="200" y="1260" class="st18 st10 st16 st17">年 -13 ， 月 -2</tspan>
		
		<tspan x="0" y="1330" class="st4 st10 st16 st17">港坪里</tspan>
		<tspan x="200" y="1330" class="st18 st10 st16 st17">年 -18 ， 月 -8</tspan>
		
		<tspan x="0" y="1400" class="st4 st10 st16 st17">頭港里</tspan>
		<tspan x="200" y="1400" class="st18 st10 st16 st17">年 -18 ， 月 1</tspan>
		
		<tspan x="0" y="1470" class="st4 st10 st16 st17">紅瓦里</tspan>
		<tspan x="200" y="1470" class="st18 st10 st16 st17">年 -19 ， 月 -8</tspan>
		
		<tspan x="800" y="0" class="st4 st10 st16 st17">國華里</tspan>
		<tspan x="1000" y="0" class="st18 st10 st16 st17">年 -21 ， 月 -5</tspan>
		
		<tspan x="800" y="70" class="st4 st10 st16 st17">北榮里</tspan>
		<tspan x="1000" y="70" class="st18 st10 st16 st17">年 -22 ， 月 2</tspan>
		
		<tspan x="800" y="140" class="st4 st10 st16 st17">福全里</tspan>
		<tspan x="1000" y="140" class="st18 st10 st16 st17">年 -22 ， 月 -11</tspan>
		
		<tspan x="800" y="210" class="st4 st10 st16 st17">保生里</tspan>
		<tspan x="1000" y="210" class="st18 st10 st16 st17">年 -25 ， 月 -10</tspan>
		
		<tspan x="800" y="280" class="st4 st10 st16 st17">新富里</tspan>
		<tspan x="1000" y="280" class="st18 st10 st16 st17">年 -26 ， 月 3</tspan>
		
		<tspan x="800" y="350" class="st4 st10 st16 st17">導明里</tspan>
		<tspan x="1000" y="350" class="st18 st10 st16 st17">年 -29 ， 月 -4</tspan>
		
		<tspan x="800" y="420" class="st4 st10 st16 st17">後驛里</tspan>
		<tspan x="1000" y="420" class="st18 st10 st16 st17">年 -31 ， 月 2</tspan>
		
		<tspan x="800" y="490" class="st4 st10 st16 st17">西榮里</tspan>
		<tspan x="1000" y="490" class="st18 st10 st16 st17">年 -31 ， 月 -5</tspan>
		
		<tspan x="800" y="560" class="st4 st10 st16 st17">永和里</tspan>
		<tspan x="1000" y="560" class="st18 st10 st16 st17">年 -31 ， 月 -5</tspan>
		
		<tspan x="800" y="630" class="st4 st10 st16 st17">美源里</tspan>
		<tspan x="1000" y="630" class="st18 st10 st16 st17">年 -32 ， 月 -8</tspan>
		
		<tspan x="800" y="700" class="st4 st10 st16 st17">培元里</tspan>
		<tspan x="1000" y="700" class="st18 st10 st16 st17">年 -34 ， 月 -11</tspan>
		
		<tspan x="800" y="770" class="st4 st10 st16 st17">書院里</tspan>
		<tspan x="1000" y="770" class="st18 st10 st16 st17">年 -35 ， 月 -5</tspan>
		
		<tspan x="800" y="840" class="st4 st10 st16 st17">文化里</tspan>
		<tspan x="1000" y="840" class="st18 st10 st16 st17">年 -36 ， 月 -8</tspan>
		
		<tspan x="800" y="910" class="st4 st10 st16 st17">磚󿾨里</tspan>
		<tspan x="1000" y="910" class="st18 st10 st16 st17">年 -37 ， 月 -10</tspan>
		
		<tspan x="800" y="980" class="st4 st10 st16 st17">番社里</tspan>
		<tspan x="1000" y="980" class="st18 st10 st16 st17">年 -39 ， 月 -9</tspan>
		
		<tspan x="800" y="1050" class="st4 st10 st16 st17">獅子里</tspan>
		<tspan x="1000" y="1050" class="st18 st10 st16 st17">年 -43 ， 月 -25</tspan>
		
		<tspan x="800" y="1120" class="st4 st10 st16 st17">保福里</tspan>
		<tspan x="1000" y="1120" class="st18 st10 st16 st17">年 -47 ， 月 -2</tspan>
		
		<tspan x="800" y="1190" class="st4 st10 st16 st17">西平里</tspan>
		<tspan x="1000" y="1190" class="st18 st10 st16 st17">年 -50 ， 月 11</tspan>
		
		<tspan x="800" y="1260" class="st4 st10 st16 st17">北湖里</tspan>
		<tspan x="1000" y="1260" class="st18 st10 st16 st17">年 -52 ， 月 -8</tspan>
		
		<tspan x="800" y="1330" class="st4 st10 st16 st17">福安里</tspan>
		<tspan x="1000" y="1330" class="st18 st10 st16 st17">年 -52 ， 月 -19</tspan>
		
		<tspan x="800" y="1400" class="st4 st10 st16 st17">福民里</tspan>
		<tspan x="1000" y="1400" class="st18 st10 st16 st17">年 -76 ， 月 -18</tspan>
		
		<tspan x="800" y="1470" class="st4 st10 st16 st17">車店里</tspan>
		<tspan x="1000" y="1470" class="st18 st10 st16 st17">年 -96 ， 月 -6</tspan>
		
		<tspan x="800" y="0" class="st4 st10 st16 st17">劉厝里</tspan>
		<tspan x="1000" y="0" class="st18 st10 st16 st17">年 -113 ， 月 -28</tspan>
			</text>
	<text transform="matrix(1 0 0 1 207 119.2712)" class="st18 st8 st20">嘉義市西區  |  2022年5月</text>
</svg>
