<?xml version="1.0" encoding="utf-8"?>
<!-- Generator: Adobe Illustrator 24.0.1, SVG Export Plug-In . SVG Version: 6.00 Build 0)  -->
<svg version="1.1" id="圖層_1" xmlns="http://www.w3.org/2000/svg" xmlns:xlink="http://www.w3.org/1999/xlink" x="0px" y="0px" viewBox="0 0 1840 2300" style="enable-background:new 0 0 1840 2300;" xml:space="preserve">
	<style type="text/css">
	.st0{fill:#0C354B;}
	.st1{fill:#E5A83D;}
	.st2{font-family:'NotoSansCJKtc-Bold-B5pc-H';}
	.st3{font-size:66px;}
	.st4{fill:#E3AA39;}
	.st5{font-family:'Arial-BoldMT';}
	.st6{font-size:291.7761px;}
	.st7{fill:none;stroke:#E3AA39;stroke-miterlimit:10;stroke-width:10;}
	.st8{font-family:'NotoSansCJKtc-Light-B5pc-H';}
	.st9{font-size:88px;}
	.st10{font-family:'NotoSansCJKtc-Medium-B5pc-H';}
	.st11{font-size:94px;}
	.st12{fill:none;stroke:#8AAFC1;stroke-miterlimit:10;}
	.st13{font-size:60.6493px;}
	.st14{font-size:106px;}
	.st15{fill:none;}
	.st16{font-size:44px;}
	.st17{letter-spacing:6;}
	.st18{fill:#FFFFFF;}
	.st19{letter-spacing:1;}
	.st20{font-size:68px;}
</style>
	<rect class="st0" width="1840" height="2300" />
	<text transform="matrix(1 0 0 1 94.5001 449.017)" class="st1 st2 st3">月變化</text>
	<g>
		<text transform="matrix(1 0 0 1 150 698.1412)" class="st4 st5 st6">-245</text>
	</g>
	<g>
		<rect x="800" y="385.6" class="st7" width="880" height="336.8" />
		<g>
			<text transform="matrix(1 0 0 1 830 519.593)" class="st4 st8 st9">月出生</text>
			<text transform="matrix(1 0 0 1 1330 521.5084)" class="st4 st10 st11">223</text>
			<text transform="matrix(1 0 0 1 830 649.4965)" class="st4 st8 st9">月死亡</text>
			<text transform="matrix(1 0 0 1 1330 651.7274)" class="st4 st10 st11">287</text>
		</g>
	</g>
	<line class="st12" x1="90" y1="745.5" x2="1643" y2="745.5" />
	<g>
		<g>
			<rect x="100" y="161.1" class="st4" width="500" height="190.4" />
			<g>
				<text transform="matrix(1 0 0 1 200 233.9079)" class="st0 st10 st13">年變化</text>
				<g>
					<text transform="matrix(1 0 0 1 110 330.2121)" class="st0 st5 st14">-2218</text>
				</g>
			</g>
		</g>
		<g>
			<rect x="640" y="161.1" class="st4" width="500" height="190.4" />
			<g>
				<text transform="matrix(1 0 0 1 740 233.908)" class="st0 st10 st13">年出生</text>
				<g>
					<text transform="matrix(1 0 0 1 650 330.2122)" class="st0 st5 st14">1368</text>
				</g>
			</g>
		</g>
		<g>
			<rect x="1180" y="161.1" class="st4" width="500" height="190.4" />
			<g>
				<text transform="matrix(1 0 0 1 1280 233.908)" class="st0 st10 st13">年死亡</text>
				<g>
					<text transform="matrix(1 0 0 1 1190 330.2122)" class="st0 st5 st14">1206</text>
				</g>
			</g>
		</g>
	</g>
	<rect x="90.6" y="772.1" class="st15" width="1141.8" height="314.8" />
	<text transform="matrix(1 0 0 1 90.5591 810.7965)">
		
		<tspan x="0" y="0" class="st4 st10 st16 st17">興華里</tspan>
		<tspan x="200" y="0" class="st18 st10 st16 st17">年 7966 ， 月 10</tspan>
		
		<tspan x="0" y="70" class="st4 st10 st16 st17">興福里</tspan>
		<tspan x="200" y="70" class="st18 st10 st16 st17">年 4373 ， 月 -8</tspan>
		
		<tspan x="0" y="140" class="st4 st10 st16 st17">青溪里</tspan>
		<tspan x="200" y="140" class="st18 st10 st16 st17">年 4021 ， 月 36</tspan>
		
		<tspan x="0" y="210" class="st4 st10 st16 st17">青埔里</tspan>
		<tspan x="200" y="210" class="st18 st10 st16 st17">年 422 ， 月 76</tspan>
		
		<tspan x="0" y="280" class="st4 st10 st16 st17">芝芭里</tspan>
		<tspan x="200" y="280" class="st18 st10 st16 st17">年 142 ， 月 48</tspan>
		
		<tspan x="0" y="350" class="st4 st10 st16 st17">過嶺里</tspan>
		<tspan x="200" y="350" class="st18 st10 st16 st17">年 124 ， 月 25</tspan>
		
		<tspan x="0" y="420" class="st4 st10 st16 st17">山東里</tspan>
		<tspan x="200" y="420" class="st18 st10 st16 st17">年 44 ， 月 -13</tspan>
		
		<tspan x="0" y="490" class="st4 st10 st16 st17">林森里</tspan>
		<tspan x="200" y="490" class="st18 st10 st16 st17">年 33 ， 月 14</tspan>
		
		<tspan x="0" y="560" class="st4 st10 st16 st17">中建里</tspan>
		<tspan x="200" y="560" class="st18 st10 st16 st17">年 17 ， 月 7</tspan>
		
		<tspan x="0" y="630" class="st4 st10 st16 st17">華勛里</tspan>
		<tspan x="200" y="630" class="st18 st10 st16 st17">年 7 ， 月 -1</tspan>
		
		<tspan x="0" y="700" class="st4 st10 st16 st17">興和里</tspan>
		<tspan x="200" y="700" class="st18 st10 st16 st17">年 6 ， 月 -3</tspan>
		
		<tspan x="0" y="770" class="st4 st10 st16 st17">中興里</tspan>
		<tspan x="200" y="770" class="st18 st10 st16 st17">年 4 ， 月 -4</tspan>
		
		<tspan x="0" y="840" class="st4 st10 st16 st17">中榮里</tspan>
		<tspan x="200" y="840" class="st18 st10 st16 st17">年 3 ， 月 -6</tspan>
		
		<tspan x="0" y="910" class="st4 st10 st16 st17">月眉里</tspan>
		<tspan x="200" y="910" class="st18 st10 st16 st17">年 0 ， 月 0</tspan>
		
		<tspan x="0" y="980" class="st4 st10 st16 st17">龍興里</tspan>
		<tspan x="200" y="980" class="st18 st10 st16 st17">年 -10 ， 月 9</tspan>
		
		<tspan x="0" y="1050" class="st4 st10 st16 st17">自治里</tspan>
		<tspan x="200" y="1050" class="st18 st10 st16 st17">年 -10 ， 月 -9</tspan>
		
		<tspan x="0" y="1120" class="st4 st10 st16 st17">中壢里</tspan>
		<tspan x="200" y="1120" class="st18 st10 st16 st17">年 -11 ， 月 -1</tspan>
		
		<tspan x="0" y="1190" class="st4 st10 st16 st17">仁和里</tspan>
		<tspan x="200" y="1190" class="st18 st10 st16 st17">年 -12 ， 月 -11</tspan>
		
		<tspan x="0" y="1260" class="st4 st10 st16 st17">三民里</tspan>
		<tspan x="200" y="1260" class="st18 st10 st16 st17">年 -13 ， 月 -5</tspan>
		
		<tspan x="0" y="1330" class="st4 st10 st16 st17">信義里</tspan>
		<tspan x="200" y="1330" class="st18 st10 st16 st17">年 -17 ， 月 -5</tspan>
		
		<tspan x="0" y="1400" class="st4 st10 st16 st17">龍德里</tspan>
		<tspan x="200" y="1400" class="st18 st10 st16 st17">年 -17 ， 月 -10</tspan>
		
		<tspan x="0" y="1470" class="st4 st10 st16 st17">永興里</tspan>
		<tspan x="200" y="1470" class="st18 st10 st16 st17">年 -17 ， 月 1</tspan>
		
		<tspan x="800" y="0" class="st4 st10 st16 st17">新街里</tspan>
		<tspan x="1000" y="0" class="st18 st10 st16 st17">年 -17 ， 月 9</tspan>
		
		<tspan x="800" y="70" class="st4 st10 st16 st17">仁美里</tspan>
		<tspan x="1000" y="70" class="st18 st10 st16 st17">年 -18 ， 月 -21</tspan>
		
		<tspan x="800" y="140" class="st4 st10 st16 st17">興平里</tspan>
		<tspan x="1000" y="140" class="st18 st10 st16 st17">年 -19 ， 月 16</tspan>
		
		<tspan x="800" y="210" class="st4 st10 st16 st17">仁祥里</tspan>
		<tspan x="1000" y="210" class="st18 st10 st16 st17">年 -22 ， 月 -10</tspan>
		
		<tspan x="800" y="280" class="st4 st10 st16 st17">五權里</tspan>
		<tspan x="1000" y="280" class="st18 st10 st16 st17">年 -22 ， 月 1</tspan>
		
		<tspan x="800" y="350" class="st4 st10 st16 st17">中山里</tspan>
		<tspan x="1000" y="350" class="st18 st10 st16 st17">年 -25 ， 月 1</tspan>
		
		<tspan x="800" y="420" class="st4 st10 st16 st17">新明里</tspan>
		<tspan x="1000" y="420" class="st18 st10 st16 st17">年 -26 ， 月 3</tspan>
		
		<tspan x="800" y="490" class="st4 st10 st16 st17">德義里</tspan>
		<tspan x="1000" y="490" class="st18 st10 st16 st17">年 -27 ， 月 4</tspan>
		
		<tspan x="800" y="560" class="st4 st10 st16 st17">石頭里</tspan>
		<tspan x="1000" y="560" class="st18 st10 st16 st17">年 -27 ， 月 3</tspan>
		
		<tspan x="800" y="630" class="st4 st10 st16 st17">龍安里</tspan>
		<tspan x="1000" y="630" class="st18 st10 st16 st17">年 -27 ， 月 -10</tspan>
		
		<tspan x="800" y="700" class="st4 st10 st16 st17">忠孝里</tspan>
		<tspan x="1000" y="700" class="st18 st10 st16 st17">年 -29 ， 月 -7</tspan>
		
		<tspan x="800" y="770" class="st4 st10 st16 st17">至善里</tspan>
		<tspan x="1000" y="770" class="st18 st10 st16 st17">年 -29 ， 月 -4</tspan>
		
		<tspan x="800" y="840" class="st4 st10 st16 st17">健行里</tspan>
		<tspan x="1000" y="840" class="st18 st10 st16 st17">年 -29 ， 月 -33</tspan>
		
		<tspan x="800" y="910" class="st4 st10 st16 st17">華愛里</tspan>
		<tspan x="1000" y="910" class="st18 st10 st16 st17">年 -31 ， 月 4</tspan>
		
		<tspan x="800" y="980" class="st4 st10 st16 st17">振興里</tspan>
		<tspan x="1000" y="980" class="st18 st10 st16 st17">年 -32 ， 月 -3</tspan>
		
		<tspan x="800" y="1050" class="st4 st10 st16 st17">普忠里</tspan>
		<tspan x="1000" y="1050" class="st18 st10 st16 st17">年 -33 ， 月 2</tspan>
		
		<tspan x="800" y="1120" class="st4 st10 st16 st17">水尾里</tspan>
		<tspan x="1000" y="1120" class="st18 st10 st16 st17">年 -33 ， 月 -7</tspan>
		
		<tspan x="800" y="1190" class="st4 st10 st16 st17">仁德里</tspan>
		<tspan x="1000" y="1190" class="st18 st10 st16 st17">年 -34 ， 月 -8</tspan>
		
		<tspan x="800" y="1260" class="st4 st10 st16 st17">仁義里</tspan>
		<tspan x="1000" y="1260" class="st18 st10 st16 st17">年 -38 ， 月 -2</tspan>
		
		<tspan x="800" y="1330" class="st4 st10 st16 st17">龍平里</tspan>
		<tspan x="1000" y="1330" class="st18 st10 st16 st17">年 -38 ， 月 10</tspan>
		
		<tspan x="800" y="1400" class="st4 st10 st16 st17">忠義里</tspan>
		<tspan x="1000" y="1400" class="st18 st10 st16 st17">年 -38 ， 月 -3</tspan>
		
		<tspan x="800" y="1470" class="st4 st10 st16 st17">興國里</tspan>
		<tspan x="1000" y="1470" class="st18 st10 st16 st17">年 -39 ， 月 -6</tspan>
		
		<tspan x="800" y="0" class="st4 st10 st16 st17">莊敬里</tspan>
		<tspan x="1000" y="0" class="st18 st10 st16 st17">年 -40 ， 月 -24</tspan>
		
		<tspan x="800" y="70" class="st4 st10 st16 st17">成功里</tspan>
		<tspan x="1000" y="70" class="st18 st10 st16 st17">年 -41 ， 月 -6</tspan>
		
		<tspan x="800" y="140" class="st4 st10 st16 st17">中堅里</tspan>
		<tspan x="1000" y="140" class="st18 st10 st16 st17">年 -41 ， 月 3</tspan>
		
		<tspan x="800" y="210" class="st4 st10 st16 st17">龍岡里</tspan>
		<tspan x="1000" y="210" class="st18 st10 st16 st17">年 -41 ， 月 -15</tspan>
		
		<tspan x="800" y="280" class="st4 st10 st16 st17">復華里</tspan>
		<tspan x="1000" y="280" class="st18 st10 st16 st17">年 -41 ， 月 -13</tspan>
		
		<tspan x="800" y="350" class="st4 st10 st16 st17">興仁里</tspan>
		<tspan x="1000" y="350" class="st18 st10 st16 st17">年 -42 ， 月 0</tspan>
		
		<tspan x="800" y="420" class="st4 st10 st16 st17">五福里</tspan>
		<tspan x="1000" y="420" class="st18 st10 st16 st17">年 -42 ， 月 -2</tspan>
		
		<tspan x="800" y="490" class="st4 st10 st16 st17">舊明里</tspan>
		<tspan x="1000" y="490" class="st18 st10 st16 st17">年 -43 ， 月 -8</tspan>
		
		<tspan x="800" y="560" class="st4 st10 st16 st17">內壢里</tspan>
		<tspan x="1000" y="560" class="st18 st10 st16 st17">年 -43 ， 月 -11</tspan>
		
		<tspan x="800" y="630" class="st4 st10 st16 st17">普仁里</tspan>
		<tspan x="1000" y="630" class="st18 st10 st16 st17">年 -43 ， 月 -25</tspan>
		
		<tspan x="800" y="700" class="st4 st10 st16 st17">東興里</tspan>
		<tspan x="1000" y="700" class="st18 st10 st16 st17">年 -43 ， 月 1</tspan>
		
		<tspan x="800" y="770" class="st4 st10 st16 st17">福德里</tspan>
		<tspan x="1000" y="770" class="st18 st10 st16 st17">年 -44 ， 月 -5</tspan>
		
		<tspan x="800" y="840" class="st4 st10 st16 st17">龍慈里</tspan>
		<tspan x="1000" y="840" class="st18 st10 st16 st17">年 -45 ， 月 -2</tspan>
		
		<tspan x="800" y="910" class="st4 st10 st16 st17">後寮里</tspan>
		<tspan x="1000" y="910" class="st18 st10 st16 st17">年 -45 ， 月 20</tspan>
		
		<tspan x="800" y="980" class="st4 st10 st16 st17">普慶里</tspan>
		<tspan x="1000" y="980" class="st18 st10 st16 st17">年 -45 ， 月 -9</tspan>
		
		<tspan x="800" y="1050" class="st4 st10 st16 st17">內厝里</tspan>
		<tspan x="1000" y="1050" class="st18 st10 st16 st17">年 -46 ， 月 -8</tspan>
		
		<tspan x="800" y="1120" class="st4 st10 st16 st17">中央里</tspan>
		<tspan x="1000" y="1120" class="st18 st10 st16 st17">年 -51 ， 月 1</tspan>
		
		<tspan x="800" y="1190" class="st4 st10 st16 st17">和平里</tspan>
		<tspan x="1000" y="1190" class="st18 st10 st16 st17">年 -52 ， 月 -10</tspan>
		
		<tspan x="800" y="1260" class="st4 st10 st16 st17">篤行里</tspan>
		<tspan x="1000" y="1260" class="st18 st10 st16 st17">年 -52 ， 月 -7</tspan>
		
		<tspan x="800" y="1330" class="st4 st10 st16 st17">新興里</tspan>
		<tspan x="1000" y="1330" class="st18 st10 st16 st17">年 -53 ， 月 -30</tspan>
		
		<tspan x="800" y="1400" class="st4 st10 st16 st17">自強里</tspan>
		<tspan x="1000" y="1400" class="st18 st10 st16 st17">年 -59 ， 月 -1</tspan>
		
		<tspan x="800" y="1470" class="st4 st10 st16 st17">中正里</tspan>
		<tspan x="1000" y="1470" class="st18 st10 st16 st17">年 -59 ， 月 16</tspan>
		
		<tspan x="800" y="0" class="st4 st10 st16 st17">仁愛里</tspan>
		<tspan x="1000" y="0" class="st18 st10 st16 st17">年 -61 ， 月 -17</tspan>
		
		<tspan x="800" y="70" class="st4 st10 st16 st17">興南里</tspan>
		<tspan x="1000" y="70" class="st18 st10 st16 st17">年 -61 ， 月 -9</tspan>
		
		<tspan x="800" y="140" class="st4 st10 st16 st17">光明里</tspan>
		<tspan x="1000" y="140" class="st18 st10 st16 st17">年 -65 ， 月 -6</tspan>
		
		<tspan x="800" y="210" class="st4 st10 st16 st17">永福里</tspan>
		<tspan x="1000" y="210" class="st18 st10 st16 st17">年 -66 ， 月 -17</tspan>
		
		<tspan x="800" y="280" class="st4 st10 st16 st17">普義里</tspan>
		<tspan x="1000" y="280" class="st18 st10 st16 st17">年 -66 ， 月 -22</tspan>
		
		<tspan x="800" y="350" class="st4 st10 st16 st17">內定里</tspan>
		<tspan x="1000" y="350" class="st18 st10 st16 st17">年 -67 ， 月 -15</tspan>
		
		<tspan x="800" y="420" class="st4 st10 st16 st17">龍昌里</tspan>
		<tspan x="1000" y="420" class="st18 st10 st16 st17">年 -69 ， 月 1</tspan>
		
		<tspan x="800" y="490" class="st4 st10 st16 st17">正義里</tspan>
		<tspan x="1000" y="490" class="st18 st10 st16 st17">年 -70 ， 月 -17</tspan>
		
		<tspan x="800" y="560" class="st4 st10 st16 st17">幸福里</tspan>
		<tspan x="1000" y="560" class="st18 st10 st16 st17">年 -70 ， 月 -4</tspan>
		
		<tspan x="800" y="630" class="st4 st10 st16 st17">中原里</tspan>
		<tspan x="1000" y="630" class="st18 st10 st16 st17">年 -74 ， 月 -7</tspan>
		
		<tspan x="800" y="700" class="st4 st10 st16 st17">仁福里</tspan>
		<tspan x="1000" y="700" class="st18 st10 st16 st17">年 -79 ， 月 -12</tspan>
		
		<tspan x="800" y="770" class="st4 st10 st16 st17">龍東里</tspan>
		<tspan x="1000" y="770" class="st18 st10 st16 st17">年 -84 ， 月 -18</tspan>
		
		<tspan x="800" y="840" class="st4 st10 st16 st17">自信里</tspan>
		<tspan x="1000" y="840" class="st18 st10 st16 st17">年 -90 ， 月 -30</tspan>
		
		<tspan x="800" y="910" class="st4 st10 st16 st17">永光里</tspan>
		<tspan x="1000" y="910" class="st18 st10 st16 st17">年 -103 ， 月 -10</tspan>
		
		<tspan x="800" y="980" class="st4 st10 st16 st17">明德里</tspan>
		<tspan x="1000" y="980" class="st18 st10 st16 st17">年 -110 ， 月 -20</tspan>
		
		<tspan x="800" y="1050" class="st4 st10 st16 st17">文化里</tspan>
		<tspan x="1000" y="1050" class="st18 st10 st16 st17">年 -117 ， 月 -23</tspan>
		
		<tspan x="800" y="1120" class="st4 st10 st16 st17">金華里</tspan>
		<tspan x="1000" y="1120" class="st18 st10 st16 st17">年 -128 ， 月 -19</tspan>
		
		<tspan x="800" y="1190" class="st4 st10 st16 st17">自立里</tspan>
		<tspan x="1000" y="1190" class="st18 st10 st16 st17">年 -137 ， 月 -10</tspan>
		
		<tspan x="800" y="1260" class="st4 st10 st16 st17">普強里</tspan>
		<tspan x="1000" y="1260" class="st18 st10 st16 st17">年 -140 ， 月 -28</tspan>
		
		<tspan x="800" y="1330" class="st4 st10 st16 st17">洽溪里</tspan>
		<tspan x="1000" y="1330" class="st18 st10 st16 st17">年 -3587 ， 月 48</tspan>
		
		<tspan x="800" y="1400" class="st4 st10 st16 st17">忠福里</tspan>
		<tspan x="1000" y="1400" class="st18 st10 st16 st17">年 -4390 ， 月 5</tspan>
		
		<tspan x="800" y="1470" class="st4 st10 st16 st17">復興里</tspan>
		<tspan x="1000" y="1470" class="st18 st10 st16 st17">年 -7995 ， 月 31</tspan>
			</text>
	<text transform="matrix(1 0 0 1 207 119.2712)" class="st18 st8 st20">桃園市中壢區  |  2022年5月</text>
</svg>
